<svg width="508" height="550" viewBox="0 0 508 550" fill="none" xmlns="http://www.w3.org/2000/svg">
<path fill-rule="evenodd" clip-rule="evenodd" d="M601.142 189.748C530.886 107.62 446.089 45.493 347.532 2.97976C342.513 0.531097 337.652 0 334.336 0C330.446 0 325.697 0.725582 320.966 2.98634C317.284 4.67606 313.514 6.38638 309.694 8.11988C299.828 12.596 289.622 17.2266 279.718 22.0554L279.527 22.1483L279.338 22.2445C197.972 63.6396 127.552 119.211 67.9459 188.813C65.2388 191.786 63.3556 195.001 62.1172 197.68C60.8538 200.413 59 205.288 59 211.259V212.874L59.2078 214.476C59.9129 219.911 60.5981 225.541 61.2978 231.291L61.2979 231.291C63.0544 245.725 64.9024 260.91 67.387 275.641L67.4015 275.727L67.4166 275.812C82.4155 361.104 111.868 441.072 155.747 515.311C157.764 519.081 160.627 522.825 164.666 525.966C168.958 529.303 173.384 531.025 176.913 532.001L177.399 532.136L177.89 532.25C229.375 544.279 281.595 550 334.498 550C387.486 550 439.994 543.997 491.72 531.702L492.312 531.562L492.896 531.392C497.032 530.194 500.64 528.221 503.457 526.18C505.777 524.499 509.74 521.213 512.642 515.987C543.391 463.845 567.492 408.402 584.38 349.954L584.382 349.947C597.334 305.066 604.826 259.368 608.832 213.805C609.495 207.665 608.074 202.561 606.85 199.402C605.497 195.909 603.659 192.907 601.773 190.516L601.465 190.126L601.142 189.748ZM334.097 72.3429C412.696 108.542 480.956 158.683 539.058 223.316C533.803 270.907 524.006 317.325 508.473 362.447C495.787 398.893 480.011 433.993 461.135 467.763C419.48 476.548 377.145 481.042 329.958 480.802L329.816 480.802L329.675 480.803C291.833 481.038 249.817 476.373 207.696 467.513C173.07 405.899 149.38 340.077 136.603 270.17C134.325 257.546 132.71 244.98 131.007 231.728L131.007 231.728L131.006 231.714C130.613 228.659 130.216 225.568 129.805 222.431C187.894 158.302 255.874 108.254 334.097 72.3429Z" fill="#F6F6F6"/>
<g filter="url(#filter0_b)">
<circle cx="100" cy="208" r="100" fill="#EB292F" fill-opacity="0.8"/>
</g>
<path d="M49.1373 184.35L46.0873 179.6L55.0373 172.9H59.1873V208H53.4373V181.1L49.1373 184.35ZM88.2709 208H66.2709V203.4C70.3042 199.467 73.0876 196.617 74.6209 194.85C78.7542 190.117 80.8209 186.133 80.8209 182.9C80.8209 181.467 80.4376 180.35 79.6709 179.55C78.9042 178.75 77.8042 178.35 76.3709 178.35C73.8042 178.35 72.1209 179.917 71.3209 183.05L66.5209 180.9C66.9876 178.333 68.1542 176.317 70.0209 174.85C71.9209 173.35 74.2542 172.6 77.0209 172.6C80.1542 172.6 82.5876 173.5 84.3209 175.3C86.0542 177.067 86.9209 179.217 86.9209 181.75C86.9209 183.55 86.5376 185.467 85.7709 187.5C85.0042 189.467 84.1209 191.183 83.1209 192.65C82.0876 194.183 80.8709 195.683 79.4709 197.15C78.2709 198.483 77.1709 199.617 76.1709 200.55C75.6709 201.017 74.8542 201.717 73.7209 202.65H88.2709V208ZM104.492 172.6C108.392 172.6 111.308 174.2 113.242 177.4C115.208 180.633 116.192 185 116.192 190.5C116.192 196.167 115.208 200.567 113.242 203.7C111.275 206.833 108.392 208.4 104.592 208.4C100.758 208.4 97.8249 206.817 95.7916 203.65C93.7583 200.483 92.7416 196.1 92.7416 190.5C92.7416 184.867 93.7416 180.483 95.7416 177.35C97.7416 174.183 100.658 172.6 104.492 172.6ZM98.8916 190.5C98.8916 198.867 100.792 203.05 104.592 203.05C106.558 203.05 107.958 202.067 108.792 200.1C109.658 198.133 110.092 194.933 110.092 190.5C110.092 186.1 109.658 182.917 108.792 180.95C107.925 178.983 106.492 178 104.492 178C102.525 178 101.092 179.017 100.192 181.05C99.3249 183.05 98.8916 186.2 98.8916 190.5ZM132.177 172.6C136.077 172.6 138.994 174.2 140.927 177.4C142.894 180.633 143.877 185 143.877 190.5C143.877 196.167 142.894 200.567 140.927 203.7C138.96 206.833 136.077 208.4 132.277 208.4C128.444 208.4 125.51 206.817 123.477 203.65C121.444 200.483 120.427 196.1 120.427 190.5C120.427 184.867 121.427 180.483 123.427 177.35C125.427 174.183 128.344 172.6 132.177 172.6ZM126.577 190.5C126.577 198.867 128.477 203.05 132.277 203.05C134.244 203.05 135.644 202.067 136.477 200.1C137.344 198.133 137.777 194.933 137.777 190.5C137.777 186.1 137.344 182.917 136.477 180.95C135.61 178.983 134.177 178 132.177 178C130.21 178 128.777 179.017 127.877 181.05C127.01 183.05 126.577 186.2 126.577 190.5Z" fill="white"/>
<path d="M30.4831 240H28.4831V235.25H22.2331V240H20.2331V228.75H22.2331V233.375H28.4831V228.75H30.4831V240ZM34.7003 231.125L34.1753 229.525C35.292 228.842 36.542 228.5 37.9253 228.5C39.442 228.5 40.542 228.875 41.2253 229.625C41.9086 230.375 42.2503 231.533 42.2503 233.1V240H40.3503V238.55C39.467 239.633 38.267 240.175 36.7503 240.175C35.717 240.175 34.8836 239.867 34.2503 239.25C33.617 238.617 33.3003 237.767 33.3003 236.7C33.3003 235.6 33.692 234.733 34.4753 234.1C35.2586 233.45 36.2836 233.125 37.5503 233.125C38.7336 233.125 39.667 233.367 40.3503 233.85C40.3503 232.583 40.1753 231.675 39.8253 231.125C39.4753 230.575 38.8003 230.3 37.8003 230.3C36.7836 230.3 35.7503 230.575 34.7003 231.125ZM37.4503 238.375C38.567 238.375 39.5336 237.892 40.3503 236.925V235.5C39.6503 235 38.8086 234.75 37.8253 234.75C37.142 234.75 36.567 234.917 36.1003 235.25C35.6503 235.567 35.4253 236.017 35.4253 236.6C35.4253 237.15 35.6003 237.583 35.9503 237.9C36.317 238.217 36.817 238.375 37.4503 238.375ZM54.0993 231.625L47.5993 240H45.5993V228.75H47.5993V237.125L54.0993 228.75H56.0993V240H54.0993V231.625ZM61.7351 240H59.7351V228.75H61.5601L65.8851 234.325L69.9851 228.75H71.7601V240H69.7601V231.8L65.8601 237.025H65.7851L61.7351 231.8V240ZM84.2595 237.2L84.8845 238.775C83.8011 239.758 82.3928 240.25 80.6595 240.25C78.8261 240.25 77.3678 239.717 76.2845 238.65C75.1845 237.583 74.6345 236.158 74.6345 234.375C74.6345 232.692 75.1511 231.292 76.1845 230.175C77.2011 229.058 78.6178 228.5 80.4345 228.5C81.9345 228.5 83.1761 228.983 84.1595 229.95C85.1595 230.9 85.6595 232.133 85.6595 233.65C85.6595 234.133 85.6178 234.583 85.5345 235H76.8845C76.9678 236.05 77.3595 236.875 78.0595 237.475C78.7761 238.075 79.6928 238.375 80.8095 238.375C82.2761 238.375 83.4261 237.983 84.2595 237.2ZM80.3345 230.375C79.3511 230.375 78.5345 230.65 77.8845 231.2C77.2511 231.75 76.8761 232.475 76.7595 233.375H83.5845C83.5345 232.442 83.2178 231.708 82.6345 231.175C82.0678 230.642 81.3011 230.375 80.3345 230.375ZM98.6228 240H96.6228V235.25H90.3728V240H88.3728V228.75H90.3728V233.375H96.6228V228.75H98.6228V240ZM103.14 238.6C102.04 237.467 101.49 236.058 101.49 234.375C101.49 232.675 102.04 231.275 103.14 230.175C104.257 229.058 105.707 228.5 107.49 228.5C109.273 228.5 110.715 229.058 111.815 230.175C112.932 231.275 113.49 232.675 113.49 234.375C113.49 236.075 112.932 237.483 111.815 238.6C110.715 239.7 109.273 240.25 107.49 240.25C105.723 240.25 104.273 239.7 103.14 238.6ZM104.715 231.5C103.982 232.233 103.615 233.192 103.615 234.375C103.615 235.558 103.973 236.517 104.69 237.25C105.423 238 106.357 238.375 107.49 238.375C108.623 238.375 109.548 238.008 110.265 237.275C110.998 236.525 111.365 235.558 111.365 234.375C111.365 233.225 110.998 232.267 110.265 231.5C109.548 230.75 108.623 230.375 107.49 230.375C106.357 230.375 105.432 230.75 104.715 231.5ZM116.376 240V228.75C116.459 228.75 116.576 228.75 116.726 228.75C116.876 228.733 117.092 228.725 117.376 228.725C117.659 228.708 117.917 228.7 118.151 228.7C119.384 228.667 120.151 228.65 120.451 228.65C123.684 228.65 125.301 229.617 125.301 231.55C125.301 232.217 125.092 232.792 124.676 233.275C124.259 233.742 123.717 234.025 123.051 234.125V234.175C124.801 234.492 125.676 235.375 125.676 236.825C125.676 239.008 123.951 240.1 120.501 240.1C120.334 240.1 119.601 240.083 118.301 240.05C118.051 240.05 117.776 240.042 117.476 240.025C117.176 240.025 116.942 240.017 116.776 240C116.609 240 116.476 240 116.376 240ZM120.776 234.95H118.376V238.4C119.576 238.45 120.342 238.475 120.676 238.475C122.592 238.475 123.551 237.875 123.551 236.675C123.551 235.525 122.626 234.95 120.776 234.95ZM120.601 230.275C120.117 230.275 119.376 230.3 118.376 230.35V233.7H120.901C121.584 233.7 122.134 233.542 122.551 233.225C122.967 232.908 123.176 232.483 123.176 231.95C123.176 230.833 122.317 230.275 120.601 230.275ZM129.329 231.125L128.804 229.525C129.921 228.842 131.171 228.5 132.554 228.5C134.071 228.5 135.171 228.875 135.854 229.625C136.538 230.375 136.879 231.533 136.879 233.1V240H134.979V238.55C134.096 239.633 132.896 240.175 131.379 240.175C130.346 240.175 129.513 239.867 128.879 239.25C128.246 238.617 127.929 237.767 127.929 236.7C127.929 235.6 128.321 234.733 129.104 234.1C129.888 233.45 130.913 233.125 132.179 233.125C133.363 233.125 134.296 233.367 134.979 233.85C134.979 232.583 134.804 231.675 134.454 231.125C134.104 230.575 133.429 230.3 132.429 230.3C131.413 230.3 130.379 230.575 129.329 231.125ZM132.079 238.375C133.196 238.375 134.163 237.892 134.979 236.925V235.5C134.279 235 133.438 234.75 132.454 234.75C131.771 234.75 131.196 234.917 130.729 235.25C130.279 235.567 130.054 236.017 130.054 236.6C130.054 237.15 130.229 237.583 130.579 237.9C130.946 238.217 131.446 238.375 132.079 238.375ZM150.478 240H148.478V235.25H142.228V240H140.228V228.75H142.228V233.375H148.478V228.75H150.478V240ZM162.595 231.625L156.095 240H154.095V228.75H156.095V237.125L162.595 228.75H164.595V240H162.595V231.625ZM176.731 231.625L170.231 240H168.231V228.75H170.231V237.125L176.731 228.75H178.731V240H176.731V231.625ZM169.831 223H171.706C171.806 224.317 172.448 224.975 173.631 224.975C174.748 224.975 175.356 224.317 175.456 223H177.331C177.331 224.017 176.981 224.858 176.281 225.525C175.598 226.175 174.714 226.5 173.631 226.5C172.448 226.5 171.514 226.183 170.831 225.55C170.164 224.9 169.831 224.05 169.831 223Z" fill="white"/>
<g filter="url(#filter1_b)">
<circle cx="193" cy="411" r="75" fill="#EB292F" fill-opacity="0.8"/>
</g>
<path d="M181.422 386.4C178.522 386.4 176.155 385.583 174.322 383.95C172.488 382.317 171.572 380.15 171.572 377.45C171.572 374.783 172.488 372.633 174.322 371C176.155 369.367 178.522 368.55 181.422 368.55C184.288 368.55 186.638 369.367 188.472 371C190.338 372.667 191.272 374.817 191.272 377.45C191.272 380.117 190.338 382.283 188.472 383.95C186.638 385.583 184.288 386.4 181.422 386.4ZM176.972 377.45C176.972 378.75 177.388 379.8 178.222 380.6C179.055 381.367 180.122 381.75 181.422 381.75C182.755 381.75 183.838 381.367 184.672 380.6C185.505 379.8 185.922 378.75 185.922 377.45C185.922 376.183 185.488 375.167 184.622 374.4C183.788 373.6 182.722 373.2 181.422 373.2C180.122 373.2 179.055 373.6 178.222 374.4C177.388 375.167 176.972 376.183 176.972 377.45ZM203.522 404.5C200.622 404.5 198.255 403.683 196.422 402.05C194.588 400.417 193.672 398.25 193.672 395.55C193.672 392.883 194.588 390.733 196.422 389.1C198.255 387.467 200.622 386.65 203.522 386.65C206.388 386.65 208.738 387.467 210.572 389.1C212.438 390.767 213.372 392.917 213.372 395.55C213.372 398.217 212.438 400.383 210.572 402.05C208.738 403.683 206.388 404.5 203.522 404.5ZM199.072 395.55C199.072 396.85 199.488 397.9 200.322 398.7C201.155 399.467 202.222 399.85 203.522 399.85C204.855 399.85 205.938 399.467 206.772 398.7C207.605 397.9 208.022 396.85 208.022 395.55C208.022 394.283 207.588 393.267 206.722 392.5C205.888 391.7 204.822 391.3 203.522 391.3C202.222 391.3 201.155 391.7 200.322 392.5C199.488 393.267 199.072 394.283 199.072 395.55ZM181.522 404.55L178.222 402.25L203.472 368.45L206.722 370.9L181.522 404.55Z" fill="white"/>
<path d="M154.622 435H153.022V422H154.622V423.06C154.942 422.687 155.382 422.387 155.942 422.16C156.502 421.92 157.082 421.8 157.682 421.8C158.962 421.8 159.969 422.227 160.702 423.08C161.462 423.92 161.842 425.013 161.842 426.36C161.842 427.733 161.409 428.887 160.542 429.82C159.689 430.74 158.562 431.2 157.162 431.2C156.082 431.2 155.235 430.993 154.622 430.58V435ZM157.222 423.3C156.155 423.3 155.289 423.713 154.622 424.54V429C155.329 429.467 156.129 429.7 157.022 429.7C157.969 429.7 158.722 429.4 159.282 428.8C159.855 428.187 160.142 427.393 160.142 426.42C160.142 425.473 159.882 424.72 159.362 424.16C158.842 423.587 158.129 423.3 157.222 423.3ZM164.615 423.9L164.195 422.62C165.089 422.073 166.089 421.8 167.195 421.8C168.409 421.8 169.289 422.1 169.835 422.7C170.382 423.3 170.655 424.227 170.655 425.48V431H169.135V429.84C168.429 430.707 167.469 431.14 166.255 431.14C165.429 431.14 164.762 430.893 164.255 430.4C163.749 429.893 163.495 429.213 163.495 428.36C163.495 427.48 163.809 426.787 164.435 426.28C165.062 425.76 165.882 425.5 166.895 425.5C167.842 425.5 168.589 425.693 169.135 426.08C169.135 425.067 168.995 424.34 168.715 423.9C168.435 423.46 167.895 423.24 167.095 423.24C166.282 423.24 165.455 423.46 164.615 423.9ZM166.815 429.7C167.709 429.7 168.482 429.313 169.135 428.54V427.4C168.575 427 167.902 426.8 167.115 426.8C166.569 426.8 166.109 426.933 165.735 427.2C165.375 427.453 165.195 427.813 165.195 428.28C165.195 428.72 165.335 429.067 165.615 429.32C165.909 429.573 166.309 429.7 166.815 429.7ZM176.315 431.2C175.635 431.2 174.915 431.087 174.155 430.86C173.421 430.62 172.901 430.327 172.595 429.98L173.415 428.78C173.775 429.073 174.201 429.313 174.695 429.5C175.201 429.673 175.661 429.76 176.075 429.76C176.768 429.76 177.335 429.627 177.775 429.36C178.215 429.08 178.435 428.72 178.435 428.28C178.435 427.907 178.275 427.62 177.955 427.42C177.648 427.22 177.221 427.12 176.675 427.12H175.155V425.82H176.575C177.028 425.82 177.401 425.7 177.695 425.46C177.988 425.207 178.135 424.9 178.135 424.54C178.135 424.14 177.961 423.827 177.615 423.6C177.268 423.36 176.801 423.24 176.215 423.24C175.268 423.24 174.368 423.573 173.515 424.24L172.895 423C173.255 422.627 173.755 422.333 174.395 422.12C175.048 421.907 175.735 421.8 176.455 421.8C177.521 421.8 178.348 422.013 178.935 422.44C179.535 422.867 179.835 423.46 179.835 424.22C179.835 425.26 179.308 425.967 178.255 426.34V426.38C178.841 426.447 179.301 426.68 179.635 427.08C179.968 427.467 180.135 427.94 180.135 428.5C180.135 429.327 179.781 429.987 179.075 430.48C178.381 430.96 177.461 431.2 176.315 431.2ZM188.933 422H190.753L187.153 431C186.499 432.587 185.933 433.64 185.453 434.16C184.946 434.72 184.366 435 183.713 435C183.126 435 182.559 434.813 182.013 434.44L182.533 433.22C182.959 433.42 183.293 433.52 183.533 433.52C183.906 433.52 184.239 433.36 184.533 433.04C184.839 432.72 185.146 432.2 185.453 431.48L185.653 431L181.333 422H183.253L185.893 427.72C185.946 427.813 186.126 428.267 186.433 429.08C186.553 428.64 186.693 428.18 186.853 427.7L188.933 422ZM193.997 431H192.397V422H193.857L197.317 426.46L200.597 422H202.017V431H200.417V424.44L197.297 428.62H197.237L193.997 424.44V431ZM213.117 431H211.517V427.2H206.517V431H204.917V422H206.517V425.7H211.517V422H213.117V431ZM216.49 423.9L216.07 422.62C216.964 422.073 217.964 421.8 219.07 421.8C220.284 421.8 221.164 422.1 221.71 422.7C222.257 423.3 222.53 424.227 222.53 425.48V431H221.01V429.84C220.304 430.707 219.344 431.14 218.13 431.14C217.304 431.14 216.637 430.893 216.13 430.4C215.624 429.893 215.37 429.213 215.37 428.36C215.37 427.48 215.684 426.787 216.31 426.28C216.937 425.76 217.757 425.5 218.77 425.5C219.717 425.5 220.464 425.693 221.01 426.08C221.01 425.067 220.87 424.34 220.59 423.9C220.31 423.46 219.77 423.24 218.97 423.24C218.157 423.24 217.33 423.46 216.49 423.9ZM218.69 429.7C219.584 429.7 220.357 429.313 221.01 428.54V427.4C220.45 427 219.777 426.8 218.99 426.8C218.444 426.8 217.984 426.933 217.61 427.2C217.25 427.453 217.07 427.813 217.07 428.28C217.07 428.72 217.21 429.067 217.49 429.32C217.784 429.573 218.184 429.7 218.69 429.7ZM229.15 422H231.95V431H230.35V428H228.61L226.41 431H224.47L227.07 427.6C226.523 427.48 226.063 427.187 225.69 426.72C225.316 426.24 225.13 425.667 225.13 425C225.13 424.08 225.463 423.353 226.13 422.82C226.796 422.273 227.803 422 229.15 422ZM226.83 425.04C226.83 425.467 226.996 425.82 227.33 426.1C227.663 426.367 228.056 426.5 228.51 426.5H230.35V423.5H228.89C228.21 423.5 227.696 423.64 227.35 423.92C227.003 424.2 226.83 424.573 226.83 425.04ZM156.557 447.08H152.117V445.78H156.537C156.417 444.98 156.077 444.367 155.517 443.94C154.971 443.513 154.271 443.3 153.417 443.3C152.311 443.3 151.391 443.627 150.657 444.28L149.977 443.08C150.364 442.693 150.877 442.387 151.517 442.16C152.157 441.92 152.784 441.8 153.397 441.8C154.837 441.8 155.991 442.227 156.857 443.08C157.751 443.933 158.197 445.073 158.197 446.5C158.197 447.82 157.764 448.933 156.897 449.84C156.031 450.747 154.944 451.2 153.637 451.2C152.011 451.2 150.804 450.82 150.017 450.06L150.777 448.88C151.391 449.427 152.311 449.7 153.537 449.7C154.377 449.7 155.064 449.473 155.597 449.02C156.131 448.553 156.451 447.907 156.557 447.08ZM166.283 442H168.383L164.443 446.3L168.763 451H166.543L162.483 446.4L166.283 442ZM162.103 451H160.503V442H162.103V451ZM170.695 449.88C169.815 448.973 169.375 447.847 169.375 446.5C169.375 445.14 169.815 444.02 170.695 443.14C171.588 442.247 172.748 441.8 174.175 441.8C175.602 441.8 176.755 442.247 177.635 443.14C178.528 444.02 178.975 445.14 178.975 446.5C178.975 447.86 178.528 448.987 177.635 449.88C176.755 450.76 175.602 451.2 174.175 451.2C172.762 451.2 171.602 450.76 170.695 449.88ZM171.955 444.2C171.368 444.787 171.075 445.553 171.075 446.5C171.075 447.447 171.362 448.213 171.935 448.8C172.522 449.4 173.268 449.7 174.175 449.7C175.082 449.7 175.822 449.407 176.395 448.82C176.982 448.22 177.275 447.447 177.275 446.5C177.275 445.58 176.982 444.813 176.395 444.2C175.822 443.6 175.082 443.3 174.175 443.3C173.268 443.3 172.528 443.6 171.955 444.2ZM189.484 451H187.884V447.2H182.884V451H181.284V442H182.884V445.7H187.884V442H189.484V451ZM193.098 449.88C192.218 448.973 191.778 447.847 191.778 446.5C191.778 445.14 192.218 444.02 193.098 443.14C193.991 442.247 195.151 441.8 196.578 441.8C198.004 441.8 199.158 442.247 200.038 443.14C200.931 444.02 201.378 445.14 201.378 446.5C201.378 447.86 200.931 448.987 200.038 449.88C199.158 450.76 198.004 451.2 196.578 451.2C195.164 451.2 194.004 450.76 193.098 449.88ZM194.358 444.2C193.771 444.787 193.478 445.553 193.478 446.5C193.478 447.447 193.764 448.213 194.338 448.8C194.924 449.4 195.671 449.7 196.578 449.7C197.484 449.7 198.224 449.407 198.798 448.82C199.384 448.22 199.678 447.447 199.678 446.5C199.678 445.58 199.384 444.813 198.798 444.2C198.224 443.6 197.484 443.3 196.578 443.3C195.671 443.3 194.931 443.6 194.358 444.2ZM205.286 451H203.686V442H205.146L208.606 446.46L211.886 442H213.306V451H211.706V444.44L208.586 448.62H208.526L205.286 444.44V451ZM223.006 444.3L217.806 451H216.206V442H217.806V448.7L223.006 442H224.606V451H223.006V444.3ZM231.454 442H234.254V451H232.654V448H230.914L228.714 451H226.774L229.374 447.6C228.828 447.48 228.368 447.187 227.994 446.72C227.621 446.24 227.434 445.667 227.434 445C227.434 444.08 227.768 443.353 228.434 442.82C229.101 442.273 230.108 442 231.454 442ZM229.134 445.04C229.134 445.467 229.301 445.82 229.634 446.1C229.968 446.367 230.361 446.5 230.814 446.5H232.654V443.5H231.194C230.514 443.5 230.001 443.64 229.654 443.92C229.308 444.2 229.134 444.573 229.134 445.04Z" fill="white"/>
<defs>
<filter id="filter0_b" x="-55" y="53" width="310" height="310" filterUnits="userSpaceOnUse" color-interpolation-filters="sRGB">
<feFlood flood-opacity="0" result="BackgroundImageFix"/>
<feGaussianBlur in="BackgroundImage" stdDeviation="27.5"/>
<feComposite in2="SourceAlpha" operator="in" result="effect1_backgroundBlur"/>
<feBlend mode="normal" in="SourceGraphic" in2="effect1_backgroundBlur" result="shape"/>
</filter>
<filter id="filter1_b" x="63" y="281" width="260" height="260" filterUnits="userSpaceOnUse" color-interpolation-filters="sRGB">
<feFlood flood-opacity="0" result="BackgroundImageFix"/>
<feGaussianBlur in="BackgroundImage" stdDeviation="27.5"/>
<feComposite in2="SourceAlpha" operator="in" result="effect1_backgroundBlur"/>
<feBlend mode="normal" in="SourceGraphic" in2="effect1_backgroundBlur" result="shape"/>
</filter>
</defs>
</svg>
