<svg width="782" height="355" viewBox="0 0 782 355" fill="none" xmlns="http://www.w3.org/2000/svg">
<path d="M43.0002 170.5C41.5002 144 62.5002 107.5 95.5002 98C128.5 88.5 133.5 92.2999 141.5 89.5C151.5 86.0001 180 40 196.5 56C213 72 208 89.5 180 89.5C152 89.5 171 117 224 117C239.5 117 270.5 131 305.5 111.5C340.5 92 302 150.5 305.5 161C309 171.5 340 125.5 386 98C432 70.4999 465 83 460 111.5C455 140 520 125.5 537.5 108C555 90.4999 597.5 91.0001 616 73.0001C634.5 55.0001 679.5 -12.4999 717 3.00008C754.5 18.5001 712.5 92.5001 729.5 118C746.5 143.5 783 213.5 760.5 207C738 200.5 707.5 166.5 708.5 141C709.5 115.5 691 97.0001 684 125.5C677 154 661 163.5 640.5 193.5C620 223.5 629 246 644 242C659 238 686.5 244 691 294C695.5 344 674 357 665 353.5C656 350 658.5 337 665 323C671.5 309 650 302.5 634.5 309.5C619 316.5 609.5 304.5 586 290C562.5 275.5 555.5 301.5 547.5 319C539.5 336.5 473 349.5 450.5 337C428 324.5 408 319.5 372 337C336 354.5 293.5 326.5 279.5 290C265.5 253.5 185 249.5 180 267C175 284.5 157.5 279 136.5 249.5C115.5 220 84.0002 228 80.5002 242.5C77.0002 257 65.5002 266.5 50.0002 267C34.5002 267.5 43.0002 304.5 29.5003 300C16.0003 295.5 -6.99973 216 16.0003 215C39.0003 214 44.5002 197 43.0002 170.5Z" fill="#E1E1E1"/>
<path d="M58.7007 67.1504C49.5841 70.5618 44.4999 61.0004 45.9999 53.967C47.4999 46.9337 51.9041 38.9252 55.6183 42.6209C60.261 47.2405 70.0964 62.8861 58.7007 67.1504Z" fill="#E1E1E1"/>
<path d="M292 87.4999C288.8 36.2999 368 29.5 401.5 30.9998C420 36.9999 341.5 54.9999 317.5 76.4999C298.3 93.6999 292.5 90.9999 292 87.4999Z" fill="#E1E1E1"/>
<path d="M516.504 17.9387C514.104 -0.0612698 506.17 10.4387 502.504 17.9387C498.601 23.9389 497 33.5 503.5 29C510 24.5 518.904 35.9387 516.504 17.9387Z" fill="#E1E1E1"/>
<path d="M508.152 66.0884C522.133 77.6772 520.831 64.5816 518.433 56.5853C517.226 49.5298 507.747 45.648 506 49.5C504.253 53.3521 494.171 54.4996 508.152 66.0884Z" fill="#E1E1E1"/>
<path d="M542.968 46.6922C533.323 54.3264 542.381 55.782 548.116 55.5555C553.06 55.9882 559.735 50.9376 559 48.9996C559.977 44.622 552.612 39.058 542.968 46.6922Z" fill="#E1E1E1"/>
<path d="M762.5 282.5C773 254.5 760 222.5 766.5 220C773 217.5 774.3 226.5 779.5 252.5C786 285 771 352.5 758 350C745 347.5 752 310.5 762.5 282.5Z" fill="#E1E1E1"/>
<path d="M128.724 76.5556C128.724 85.827 122.171 93.5915 113.376 95.6039C111.926 95.9357 110.415 105 108.862 105C107.309 105 105.798 95.9357 104.348 95.6039C95.5532 93.5915 89 85.827 89 76.5556C89 65.7553 97.8926 57 108.862 57C119.832 57 128.724 65.7553 128.724 76.5556Z" fill="#EB292F"/>
<path d="M124.403 71.584C120.12 66.501 114.954 62.6635 108.939 60.0379C108.857 59.9874 108.71 59.9874 108.612 60.0379C107.745 60.4418 106.879 60.8289 106.029 61.2497C101.076 63.808 96.7926 67.2416 93.1635 71.5503C93.0817 71.6345 93 71.8028 93 71.9206C93.1635 73.1997 93.2943 74.4957 93.5068 75.7749C94.4222 81.0598 96.2204 86.0082 98.9014 90.603C98.9831 90.7713 99.0975 90.8555 99.2773 90.906C102.4 91.6465 105.571 92 108.791 92C112.012 92 115.2 91.6297 118.338 90.8723C118.453 90.8387 118.6 90.7377 118.649 90.6367C120.529 87.4051 122 83.9716 123.03 80.3529C123.815 77.5926 124.272 74.765 124.517 71.9206C124.534 71.8028 124.468 71.6681 124.403 71.584ZM121.248 82.1202C120.365 84.6953 119.254 87.1695 117.913 89.5427C117.831 89.6605 117.701 89.7615 117.586 89.7951C114.693 90.4515 111.767 90.7882 108.497 90.7713C105.833 90.7882 102.89 90.4347 99.9803 89.7783C99.8658 89.7615 99.7351 89.6605 99.6697 89.5427C97.2666 85.3181 95.6319 80.7905 94.7655 75.9769C94.553 74.7819 94.4222 73.5532 94.2587 72.3414C94.2424 72.2235 94.3078 72.0552 94.3732 71.9542C98.3619 67.3762 103.086 63.8417 108.563 61.3675C108.677 61.317 108.857 61.317 108.971 61.3675C114.464 63.8585 119.205 67.393 123.193 72.0047C123.259 72.0889 123.324 72.2235 123.308 72.3414C122.981 75.6739 122.327 78.9391 121.248 82.1202Z" fill="white"/>
<path fill-rule="evenodd" clip-rule="evenodd" d="M103.004 75.5732C100.945 75.9099 99.6696 75.6406 99.5715 78.0474C99.5225 79.0236 99.5879 83.164 99.784 83.9214C100.225 85.6214 102.416 84.9313 104.198 85.4026C105.685 85.7897 107.68 86.2778 109.413 85.8907C109.445 85.1501 108.988 85.1164 109.167 84.2917C109.282 83.77 109.707 83.4502 109.87 83.0126C109.658 82.6591 109.135 82.0869 109.102 81.5988C109.02 80.8414 109.69 80.3869 109.739 79.983C109.805 79.478 109.135 78.9226 109.102 78.384C109.053 77.7108 109.739 77.2564 109.707 76.8019C109.69 76.499 109.135 75.7921 109.118 75.2703C109.086 74.8159 109.265 74.9168 109.135 74.3278C109.069 74.0248 108.922 73.7892 108.84 73.4862C108.481 72.0724 110.802 66.3667 107.86 66.737C106.797 66.8716 106.258 68.2349 105.8 69.2616C105.309 70.3556 104.819 71.315 104.345 72.3754L103.004 75.5732Z" fill="white"/>
<path fill-rule="evenodd" clip-rule="evenodd" d="M111.505 77.0547C108.808 77.4755 109.364 79.3101 111.08 79.5794C111.636 79.6804 117.357 79.7477 117.864 79.3774C118.354 79.0239 119.597 77.627 117.096 77.1557C115.902 76.9369 112.698 76.8696 111.505 77.0547Z" fill="white"/>
<path fill-rule="evenodd" clip-rule="evenodd" d="M111.423 80.1846C109.331 80.4539 109.151 82.2212 110.867 82.6588C111.865 82.9113 116.916 83.1974 117.455 81.8004C117.733 81.0598 116.998 80.5044 116.425 80.3025C115.673 80.0332 112.339 80.0837 111.423 80.1846Z" fill="white"/>
<path fill-rule="evenodd" clip-rule="evenodd" d="M110.916 74.0083C109.265 74.3449 109.135 76.0785 111.064 76.432C112.126 76.6339 114.922 76.5498 116.017 76.3983C117.57 76.1795 117.88 74.2271 115.821 73.9746C114.791 73.84 111.881 73.8063 110.916 74.0083Z" fill="white"/>
<path fill-rule="evenodd" clip-rule="evenodd" d="M111.439 83.3151C109.151 83.5676 109.641 85.3348 110.491 85.6883C111.162 85.9744 114.022 85.9408 114.872 85.8566C116.752 85.6715 116.687 83.9715 115.673 83.4666C115.036 83.1468 112.306 83.2141 111.439 83.3151Z" fill="white"/>
<path d="M113.724 145.556C113.724 154.827 107.171 162.591 98.3762 164.604C96.926 164.936 95.4148 174 93.8621 174C92.3093 174 90.7982 164.936 89.348 164.604C80.5532 162.591 74 154.827 74 145.556C74 134.755 82.8926 126 93.8621 126C104.832 126 113.724 134.755 113.724 145.556Z" fill="#EB292F"/>
<path d="M109.403 140.584C105.12 135.501 99.9543 131.664 93.9385 129.038C93.8568 128.987 93.7097 128.987 93.6116 129.038C92.7452 129.442 91.8788 129.829 91.0287 130.25C86.0755 132.808 81.7926 136.242 78.1635 140.55C78.0817 140.634 78 140.803 78 140.921C78.1635 142.2 78.2943 143.496 78.5068 144.775C79.4222 150.06 81.2204 155.008 83.9014 159.603C83.9831 159.771 84.0975 159.855 84.2773 159.906C87.3997 160.647 90.571 161 93.7914 161C97.0118 161 100.2 160.63 103.338 159.872C103.453 159.839 103.6 159.738 103.649 159.637C105.529 156.405 107 152.972 108.03 149.353C108.815 146.593 109.272 143.765 109.517 140.921C109.534 140.803 109.468 140.668 109.403 140.584ZM106.248 151.12C105.365 153.695 104.254 156.169 102.913 158.543C102.831 158.66 102.701 158.761 102.586 158.795C99.6928 159.452 96.7666 159.788 93.4972 159.771C90.8326 159.788 87.8901 159.435 84.9803 158.778C84.8658 158.761 84.7351 158.66 84.6697 158.543C82.2666 154.318 80.6319 149.791 79.7655 144.977C79.553 143.782 79.4222 142.553 79.2587 141.341C79.2424 141.224 79.3078 141.055 79.3732 140.954C83.3619 136.376 88.0862 132.842 93.5626 130.368C93.677 130.317 93.8568 130.317 93.9712 130.368C99.4639 132.859 104.205 136.393 108.193 141.005C108.259 141.089 108.324 141.224 108.308 141.341C107.981 144.674 107.327 147.939 106.248 151.12Z" fill="white"/>
<path fill-rule="evenodd" clip-rule="evenodd" d="M88.0044 144.573C85.9447 144.91 84.6696 144.641 84.5715 147.047C84.5225 148.024 84.5879 152.164 84.784 152.921C85.2254 154.621 87.4159 153.931 89.1978 154.403C90.6854 154.79 92.6797 155.278 94.4125 154.891C94.4452 154.15 93.9875 154.116 94.1673 153.292C94.2818 152.77 94.7068 152.45 94.8703 152.013C94.6578 151.659 94.1346 151.087 94.102 150.599C94.0202 149.841 94.6905 149.387 94.7395 148.983C94.8049 148.478 94.1346 147.923 94.102 147.384C94.0529 146.711 94.7395 146.256 94.7068 145.802C94.6905 145.499 94.1346 144.792 94.1183 144.27C94.0856 143.816 94.2654 143.917 94.1346 143.328C94.0693 143.025 93.9221 142.789 93.8404 142.486C93.4808 141.072 95.8021 135.367 92.8596 135.737C91.797 135.872 91.2575 137.235 90.7998 138.262C90.3094 139.356 89.819 140.315 89.3449 141.375L88.0044 144.573Z" fill="white"/>
<path fill-rule="evenodd" clip-rule="evenodd" d="M96.505 146.055C93.8077 146.475 94.3635 148.31 96.08 148.579C96.6358 148.68 102.357 148.748 102.864 148.377C103.354 148.024 104.597 146.627 102.096 146.156C100.902 145.937 97.6983 145.87 96.505 146.055Z" fill="white"/>
<path fill-rule="evenodd" clip-rule="evenodd" d="M96.4232 149.185C94.3307 149.454 94.1509 151.221 95.8674 151.659C96.8646 151.911 101.916 152.197 102.455 150.8C102.733 150.06 101.998 149.504 101.425 149.302C100.673 149.033 97.3386 149.084 96.4232 149.185Z" fill="white"/>
<path fill-rule="evenodd" clip-rule="evenodd" d="M95.9164 143.008C94.2654 143.345 94.1346 145.079 96.0636 145.432C97.1261 145.634 99.9215 145.55 101.017 145.398C102.57 145.18 102.88 143.227 100.821 142.975C99.7907 142.84 96.8809 142.806 95.9164 143.008Z" fill="white"/>
<path fill-rule="evenodd" clip-rule="evenodd" d="M96.4394 152.315C94.1508 152.568 94.6412 154.335 95.4913 154.688C96.1615 154.974 99.0223 154.941 99.8724 154.857C101.752 154.671 101.687 152.972 100.673 152.467C100.036 152.147 97.3058 152.214 96.4394 152.315Z" fill="white"/>
<path d="M150.724 195.556C150.724 204.827 144.171 212.591 135.376 214.604C133.926 214.936 132.415 224 130.862 224C129.309 224 127.798 214.936 126.348 214.604C117.553 212.591 111 204.827 111 195.556C111 184.755 119.893 176 130.862 176C141.832 176 150.724 184.755 150.724 195.556Z" fill="#EB292F"/>
<path d="M146.403 190.584C142.12 185.501 136.954 181.664 130.939 179.038C130.857 178.987 130.71 178.987 130.612 179.038C129.745 179.442 128.879 179.829 128.029 180.25C123.076 182.808 118.793 186.242 115.163 190.55C115.082 190.634 115 190.803 115 190.921C115.163 192.2 115.294 193.496 115.507 194.775C116.422 200.06 118.22 205.008 120.901 209.603C120.983 209.771 121.098 209.855 121.277 209.906C124.4 210.647 127.571 211 130.791 211C134.012 211 137.2 210.63 140.338 209.872C140.453 209.839 140.6 209.738 140.649 209.637C142.529 206.405 144 202.972 145.03 199.353C145.815 196.593 146.272 193.765 146.517 190.921C146.534 190.803 146.468 190.668 146.403 190.584ZM143.248 201.12C142.365 203.695 141.254 206.169 139.913 208.543C139.831 208.66 139.701 208.761 139.586 208.795C136.693 209.452 133.767 209.788 130.497 209.771C127.833 209.788 124.89 209.435 121.98 208.778C121.866 208.761 121.735 208.66 121.67 208.543C119.267 204.318 117.632 199.791 116.766 194.977C116.553 193.782 116.422 192.553 116.259 191.341C116.242 191.224 116.308 191.055 116.373 190.954C120.362 186.376 125.086 182.842 130.563 180.368C130.677 180.317 130.857 180.317 130.971 180.368C136.464 182.859 141.205 186.393 145.193 191.005C145.259 191.089 145.324 191.224 145.308 191.341C144.981 194.674 144.327 197.939 143.248 201.12Z" fill="white"/>
<path fill-rule="evenodd" clip-rule="evenodd" d="M125.004 194.573C122.945 194.91 121.67 194.641 121.572 197.047C121.522 198.024 121.588 202.164 121.784 202.921C122.225 204.621 124.416 203.931 126.198 204.403C127.685 204.79 129.68 205.278 131.413 204.891C131.445 204.15 130.988 204.116 131.167 203.292C131.282 202.77 131.707 202.45 131.87 202.013C131.658 201.659 131.135 201.087 131.102 200.599C131.02 199.841 131.69 199.387 131.739 198.983C131.805 198.478 131.135 197.923 131.102 197.384C131.053 196.711 131.739 196.256 131.707 195.802C131.69 195.499 131.135 194.792 131.118 194.27C131.086 193.816 131.265 193.917 131.135 193.328C131.069 193.025 130.922 192.789 130.84 192.486C130.481 191.072 132.802 185.367 129.86 185.737C128.797 185.872 128.258 187.235 127.8 188.262C127.309 189.356 126.819 190.315 126.345 191.375L125.004 194.573Z" fill="white"/>
<path fill-rule="evenodd" clip-rule="evenodd" d="M133.505 196.055C130.808 196.475 131.364 198.31 133.08 198.579C133.636 198.68 139.357 198.748 139.864 198.377C140.354 198.024 141.597 196.627 139.096 196.156C137.902 195.937 134.698 195.87 133.505 196.055Z" fill="white"/>
<path fill-rule="evenodd" clip-rule="evenodd" d="M133.423 199.185C131.331 199.454 131.151 201.221 132.867 201.659C133.865 201.911 138.916 202.197 139.455 200.8C139.733 200.06 138.998 199.504 138.425 199.302C137.673 199.033 134.339 199.084 133.423 199.185Z" fill="white"/>
<path fill-rule="evenodd" clip-rule="evenodd" d="M132.916 193.008C131.265 193.345 131.135 195.079 133.064 195.432C134.126 195.634 136.922 195.55 138.017 195.398C139.57 195.18 139.88 193.227 137.821 192.975C136.791 192.84 133.881 192.806 132.916 193.008Z" fill="white"/>
<path fill-rule="evenodd" clip-rule="evenodd" d="M133.439 202.315C131.151 202.568 131.641 204.335 132.491 204.688C133.162 204.974 136.022 204.941 136.872 204.857C138.752 204.671 138.687 202.972 137.673 202.467C137.036 202.147 134.306 202.214 133.439 202.315Z" fill="white"/>
<path d="M280.724 162.556C280.724 171.827 274.171 179.591 265.376 181.604C263.926 181.936 262.415 191 260.862 191C259.309 191 257.798 181.936 256.348 181.604C247.553 179.591 241 171.827 241 162.556C241 151.755 249.893 143 260.862 143C271.832 143 280.724 151.755 280.724 162.556Z" fill="#EB292F"/>
<path d="M276.403 157.584C272.12 152.501 266.954 148.664 260.939 146.038C260.857 145.987 260.71 145.987 260.612 146.038C259.745 146.442 258.879 146.829 258.029 147.25C253.076 149.808 248.793 153.242 245.163 157.55C245.082 157.634 245 157.803 245 157.921C245.163 159.2 245.294 160.496 245.507 161.775C246.422 167.06 248.22 172.008 250.901 176.603C250.983 176.771 251.098 176.855 251.277 176.906C254.4 177.647 257.571 178 260.791 178C264.012 178 267.2 177.63 270.338 176.872C270.453 176.839 270.6 176.738 270.649 176.637C272.529 173.405 274 169.972 275.03 166.353C275.815 163.593 276.272 160.765 276.517 157.921C276.534 157.803 276.468 157.668 276.403 157.584ZM273.248 168.12C272.365 170.695 271.254 173.169 269.913 175.543C269.831 175.66 269.701 175.761 269.586 175.795C266.693 176.452 263.767 176.788 260.497 176.771C257.833 176.788 254.89 176.435 251.98 175.778C251.866 175.761 251.735 175.66 251.67 175.543C249.267 171.318 247.632 166.791 246.766 161.977C246.553 160.782 246.422 159.553 246.259 158.341C246.242 158.224 246.308 158.055 246.373 157.954C250.362 153.376 255.086 149.842 260.563 147.368C260.677 147.317 260.857 147.317 260.971 147.368C266.464 149.859 271.205 153.393 275.193 158.005C275.259 158.089 275.324 158.224 275.308 158.341C274.981 161.674 274.327 164.939 273.248 168.12Z" fill="white"/>
<path fill-rule="evenodd" clip-rule="evenodd" d="M255.004 161.573C252.945 161.91 251.67 161.641 251.572 164.047C251.522 165.024 251.588 169.164 251.784 169.921C252.225 171.621 254.416 170.931 256.198 171.403C257.685 171.79 259.68 172.278 261.413 171.891C261.445 171.15 260.988 171.116 261.167 170.292C261.282 169.77 261.707 169.45 261.87 169.013C261.658 168.659 261.135 168.087 261.102 167.599C261.02 166.841 261.69 166.387 261.739 165.983C261.805 165.478 261.135 164.923 261.102 164.384C261.053 163.711 261.739 163.256 261.707 162.802C261.69 162.499 261.135 161.792 261.118 161.27C261.086 160.816 261.265 160.917 261.135 160.328C261.069 160.025 260.922 159.789 260.84 159.486C260.481 158.072 262.802 152.367 259.86 152.737C258.797 152.872 258.258 154.235 257.8 155.262C257.309 156.356 256.819 157.315 256.345 158.375L255.004 161.573Z" fill="white"/>
<path fill-rule="evenodd" clip-rule="evenodd" d="M263.505 163.055C260.808 163.475 261.364 165.31 263.08 165.579C263.636 165.68 269.357 165.748 269.864 165.377C270.354 165.024 271.597 163.627 269.096 163.156C267.902 162.937 264.698 162.87 263.505 163.055Z" fill="white"/>
<path fill-rule="evenodd" clip-rule="evenodd" d="M263.423 166.185C261.331 166.454 261.151 168.221 262.867 168.659C263.865 168.911 268.916 169.197 269.455 167.8C269.733 167.06 268.998 166.504 268.425 166.302C267.673 166.033 264.339 166.084 263.423 166.185Z" fill="white"/>
<path fill-rule="evenodd" clip-rule="evenodd" d="M262.916 160.008C261.265 160.345 261.135 162.079 263.064 162.432C264.126 162.634 266.922 162.55 268.017 162.398C269.57 162.18 269.88 160.227 267.821 159.975C266.791 159.84 263.881 159.806 262.916 160.008Z" fill="white"/>
<path fill-rule="evenodd" clip-rule="evenodd" d="M263.439 169.315C261.151 169.568 261.641 171.335 262.491 171.688C263.162 171.974 266.022 171.941 266.872 171.857C268.752 171.671 268.687 169.972 267.673 169.467C267.036 169.147 264.306 169.214 263.439 169.315Z" fill="white"/>
<path d="M443.724 266.556C443.724 275.827 437.171 283.591 428.376 285.604C426.926 285.936 425.415 295 423.862 295C422.309 295 420.798 285.936 419.348 285.604C410.553 283.591 404 275.827 404 266.556C404 255.755 412.893 247 423.862 247C434.832 247 443.724 255.755 443.724 266.556Z" fill="#EB292F"/>
<path d="M439.403 261.584C435.12 256.501 429.954 252.664 423.939 250.038C423.857 249.987 423.71 249.987 423.612 250.038C422.745 250.442 421.879 250.829 421.029 251.25C416.076 253.808 411.793 257.242 408.163 261.55C408.082 261.634 408 261.803 408 261.921C408.163 263.2 408.294 264.496 408.507 265.775C409.422 271.06 411.22 276.008 413.901 280.603C413.983 280.771 414.098 280.855 414.277 280.906C417.4 281.647 420.571 282 423.791 282C427.012 282 430.2 281.63 433.338 280.872C433.453 280.839 433.6 280.738 433.649 280.637C435.529 277.405 437 273.972 438.03 270.353C438.815 267.593 439.272 264.765 439.517 261.921C439.534 261.803 439.468 261.668 439.403 261.584ZM436.248 272.12C435.365 274.695 434.254 277.169 432.913 279.543C432.831 279.66 432.701 279.761 432.586 279.795C429.693 280.452 426.767 280.788 423.497 280.771C420.833 280.788 417.89 280.435 414.98 279.778C414.866 279.761 414.735 279.66 414.67 279.543C412.267 275.318 410.632 270.791 409.766 265.977C409.553 264.782 409.422 263.553 409.259 262.341C409.242 262.224 409.308 262.055 409.373 261.954C413.362 257.376 418.086 253.842 423.563 251.368C423.677 251.317 423.857 251.317 423.971 251.368C429.464 253.859 434.205 257.393 438.193 262.005C438.259 262.089 438.324 262.224 438.308 262.341C437.981 265.674 437.327 268.939 436.248 272.12Z" fill="white"/>
<path fill-rule="evenodd" clip-rule="evenodd" d="M418.004 265.573C415.945 265.91 414.67 265.641 414.572 268.047C414.522 269.024 414.588 273.164 414.784 273.921C415.225 275.621 417.416 274.931 419.198 275.403C420.685 275.79 422.68 276.278 424.413 275.891C424.445 275.15 423.988 275.116 424.167 274.292C424.282 273.77 424.707 273.45 424.87 273.013C424.658 272.659 424.135 272.087 424.102 271.599C424.02 270.841 424.69 270.387 424.739 269.983C424.805 269.478 424.135 268.923 424.102 268.384C424.053 267.711 424.739 267.256 424.707 266.802C424.69 266.499 424.135 265.792 424.118 265.27C424.086 264.816 424.265 264.917 424.135 264.328C424.069 264.025 423.922 263.789 423.84 263.486C423.481 262.072 425.802 256.367 422.86 256.737C421.797 256.872 421.258 258.235 420.8 259.262C420.309 260.356 419.819 261.315 419.345 262.375L418.004 265.573Z" fill="white"/>
<path fill-rule="evenodd" clip-rule="evenodd" d="M426.505 267.055C423.808 267.475 424.364 269.31 426.08 269.579C426.636 269.68 432.357 269.748 432.864 269.377C433.354 269.024 434.597 267.627 432.096 267.156C430.902 266.937 427.698 266.87 426.505 267.055Z" fill="white"/>
<path fill-rule="evenodd" clip-rule="evenodd" d="M426.423 270.185C424.331 270.454 424.151 272.221 425.867 272.659C426.865 272.911 431.916 273.197 432.455 271.8C432.733 271.06 431.998 270.504 431.425 270.302C430.673 270.033 427.339 270.084 426.423 270.185Z" fill="white"/>
<path fill-rule="evenodd" clip-rule="evenodd" d="M425.916 264.008C424.265 264.345 424.135 266.079 426.064 266.432C427.126 266.634 429.922 266.55 431.017 266.398C432.57 266.18 432.88 264.227 430.821 263.975C429.791 263.84 426.881 263.806 425.916 264.008Z" fill="white"/>
<path fill-rule="evenodd" clip-rule="evenodd" d="M426.439 273.315C424.151 273.568 424.641 275.335 425.491 275.688C426.162 275.974 429.022 275.941 429.872 275.857C431.752 275.671 431.687 273.972 430.673 273.467C430.036 273.147 427.306 273.214 426.439 273.315Z" fill="white"/>
<path d="M516.724 295.556C516.724 304.827 510.171 312.591 501.376 314.604C499.926 314.936 498.415 324 496.862 324C495.309 324 493.798 314.936 492.348 314.604C483.553 312.591 477 304.827 477 295.556C477 284.755 485.893 276 496.862 276C507.832 276 516.724 284.755 516.724 295.556Z" fill="#EB292F"/>
<path d="M512.403 290.584C508.12 285.501 502.954 281.664 496.939 279.038C496.857 278.987 496.71 278.987 496.612 279.038C495.745 279.442 494.879 279.829 494.029 280.25C489.076 282.808 484.793 286.242 481.163 290.55C481.082 290.634 481 290.803 481 290.921C481.163 292.2 481.294 293.496 481.507 294.775C482.422 300.06 484.22 305.008 486.901 309.603C486.983 309.771 487.098 309.855 487.277 309.906C490.4 310.647 493.571 311 496.791 311C500.012 311 503.2 310.63 506.338 309.872C506.453 309.839 506.6 309.738 506.649 309.637C508.529 306.405 510 302.972 511.03 299.353C511.815 296.593 512.272 293.765 512.517 290.921C512.534 290.803 512.468 290.668 512.403 290.584ZM509.248 301.12C508.365 303.695 507.254 306.169 505.913 308.543C505.831 308.66 505.701 308.761 505.586 308.795C502.693 309.452 499.767 309.788 496.497 309.771C493.833 309.788 490.89 309.435 487.98 308.778C487.866 308.761 487.735 308.66 487.67 308.543C485.267 304.318 483.632 299.791 482.766 294.977C482.553 293.782 482.422 292.553 482.259 291.341C482.242 291.224 482.308 291.055 482.373 290.954C486.362 286.376 491.086 282.842 496.563 280.368C496.677 280.317 496.857 280.317 496.971 280.368C502.464 282.859 507.205 286.393 511.193 291.005C511.259 291.089 511.324 291.224 511.308 291.341C510.981 294.674 510.327 297.939 509.248 301.12Z" fill="white"/>
<path fill-rule="evenodd" clip-rule="evenodd" d="M491.004 294.573C488.945 294.91 487.67 294.641 487.572 297.047C487.522 298.024 487.588 302.164 487.784 302.921C488.225 304.621 490.416 303.931 492.198 304.403C493.685 304.79 495.68 305.278 497.413 304.891C497.445 304.15 496.988 304.116 497.167 303.292C497.282 302.77 497.707 302.45 497.87 302.013C497.658 301.659 497.135 301.087 497.102 300.599C497.02 299.841 497.69 299.387 497.739 298.983C497.805 298.478 497.135 297.923 497.102 297.384C497.053 296.711 497.739 296.256 497.707 295.802C497.69 295.499 497.135 294.792 497.118 294.27C497.086 293.816 497.265 293.917 497.135 293.328C497.069 293.025 496.922 292.789 496.84 292.486C496.481 291.072 498.802 285.367 495.86 285.737C494.797 285.872 494.258 287.235 493.8 288.262C493.309 289.356 492.819 290.315 492.345 291.375L491.004 294.573Z" fill="white"/>
<path fill-rule="evenodd" clip-rule="evenodd" d="M499.505 296.055C496.808 296.475 497.364 298.31 499.08 298.579C499.636 298.68 505.357 298.748 505.864 298.377C506.354 298.024 507.597 296.627 505.096 296.156C503.902 295.937 500.698 295.87 499.505 296.055Z" fill="white"/>
<path fill-rule="evenodd" clip-rule="evenodd" d="M499.423 299.185C497.331 299.454 497.151 301.221 498.867 301.659C499.865 301.911 504.916 302.197 505.455 300.8C505.733 300.06 504.998 299.504 504.425 299.302C503.673 299.033 500.339 299.084 499.423 299.185Z" fill="white"/>
<path fill-rule="evenodd" clip-rule="evenodd" d="M498.916 293.008C497.265 293.345 497.135 295.079 499.064 295.432C500.126 295.634 502.922 295.55 504.017 295.398C505.57 295.18 505.88 293.227 503.821 292.975C502.791 292.84 499.881 292.806 498.916 293.008Z" fill="white"/>
<path fill-rule="evenodd" clip-rule="evenodd" d="M499.439 302.315C497.151 302.568 497.641 304.335 498.491 304.688C499.162 304.974 502.022 304.941 502.872 304.857C504.752 304.671 504.687 302.972 503.673 302.467C503.036 302.147 500.306 302.214 499.439 302.315Z" fill="white"/>
<path d="M568.724 242.556C568.724 251.827 562.171 259.591 553.376 261.604C551.926 261.936 550.415 271 548.862 271C547.309 271 545.798 261.936 544.348 261.604C535.553 259.591 529 251.827 529 242.556C529 231.755 537.893 223 548.862 223C559.832 223 568.724 231.755 568.724 242.556Z" fill="#EB292F"/>
<path d="M564.403 237.584C560.12 232.501 554.954 228.664 548.939 226.038C548.857 225.987 548.71 225.987 548.612 226.038C547.745 226.442 546.879 226.829 546.029 227.25C541.076 229.808 536.793 233.242 533.163 237.55C533.082 237.634 533 237.803 533 237.921C533.163 239.2 533.294 240.496 533.507 241.775C534.422 247.06 536.22 252.008 538.901 256.603C538.983 256.771 539.098 256.855 539.277 256.906C542.4 257.647 545.571 258 548.791 258C552.012 258 555.2 257.63 558.338 256.872C558.453 256.839 558.6 256.738 558.649 256.637C560.529 253.405 562 249.972 563.03 246.353C563.815 243.593 564.272 240.765 564.517 237.921C564.534 237.803 564.468 237.668 564.403 237.584ZM561.248 248.12C560.365 250.695 559.254 253.169 557.913 255.543C557.831 255.66 557.701 255.761 557.586 255.795C554.693 256.452 551.767 256.788 548.497 256.771C545.833 256.788 542.89 256.435 539.98 255.778C539.866 255.761 539.735 255.66 539.67 255.543C537.267 251.318 535.632 246.791 534.766 241.977C534.553 240.782 534.422 239.553 534.259 238.341C534.242 238.224 534.308 238.055 534.373 237.954C538.362 233.376 543.086 229.842 548.563 227.368C548.677 227.317 548.857 227.317 548.971 227.368C554.464 229.859 559.205 233.393 563.193 238.005C563.259 238.089 563.324 238.224 563.308 238.341C562.981 241.674 562.327 244.939 561.248 248.12Z" fill="white"/>
<path fill-rule="evenodd" clip-rule="evenodd" d="M543.004 241.573C540.945 241.91 539.67 241.641 539.572 244.047C539.522 245.024 539.588 249.164 539.784 249.921C540.225 251.621 542.416 250.931 544.198 251.403C545.685 251.79 547.68 252.278 549.413 251.891C549.445 251.15 548.988 251.116 549.167 250.292C549.282 249.77 549.707 249.45 549.87 249.013C549.658 248.659 549.135 248.087 549.102 247.599C549.02 246.841 549.69 246.387 549.739 245.983C549.805 245.478 549.135 244.923 549.102 244.384C549.053 243.711 549.739 243.256 549.707 242.802C549.69 242.499 549.135 241.792 549.118 241.27C549.086 240.816 549.265 240.917 549.135 240.328C549.069 240.025 548.922 239.789 548.84 239.486C548.481 238.072 550.802 232.367 547.86 232.737C546.797 232.872 546.258 234.235 545.8 235.262C545.309 236.356 544.819 237.315 544.345 238.375L543.004 241.573Z" fill="white"/>
<path fill-rule="evenodd" clip-rule="evenodd" d="M551.505 243.055C548.808 243.475 549.364 245.31 551.08 245.579C551.636 245.68 557.357 245.748 557.864 245.377C558.354 245.024 559.597 243.627 557.096 243.156C555.902 242.937 552.698 242.87 551.505 243.055Z" fill="white"/>
<path fill-rule="evenodd" clip-rule="evenodd" d="M551.423 246.185C549.331 246.454 549.151 248.221 550.867 248.659C551.865 248.911 556.916 249.197 557.455 247.8C557.733 247.06 556.998 246.504 556.425 246.302C555.673 246.033 552.339 246.084 551.423 246.185Z" fill="white"/>
<path fill-rule="evenodd" clip-rule="evenodd" d="M550.916 240.008C549.265 240.345 549.135 242.079 551.064 242.432C552.126 242.634 554.922 242.55 556.017 242.398C557.57 242.18 557.88 240.227 555.821 239.975C554.791 239.84 551.881 239.806 550.916 240.008Z" fill="white"/>
<path fill-rule="evenodd" clip-rule="evenodd" d="M551.439 249.315C549.151 249.568 549.641 251.335 550.491 251.688C551.162 251.974 554.022 251.941 554.872 251.857C556.752 251.671 556.687 249.972 555.673 249.467C555.036 249.147 552.306 249.214 551.439 249.315Z" fill="white"/>
<path d="M387.724 306.556C387.724 315.827 381.171 323.591 372.376 325.604C370.926 325.936 369.415 335 367.862 335C366.309 335 364.798 325.936 363.348 325.604C354.553 323.591 348 315.827 348 306.556C348 295.755 356.893 287 367.862 287C378.832 287 387.724 295.755 387.724 306.556Z" fill="#EB292F"/>
<path d="M383.403 301.584C379.12 296.501 373.954 292.664 367.939 290.038C367.857 289.987 367.71 289.987 367.612 290.038C366.745 290.442 365.879 290.829 365.029 291.25C360.076 293.808 355.793 297.242 352.163 301.55C352.082 301.634 352 301.803 352 301.921C352.163 303.2 352.294 304.496 352.507 305.775C353.422 311.06 355.22 316.008 357.901 320.603C357.983 320.771 358.098 320.855 358.277 320.906C361.4 321.647 364.571 322 367.791 322C371.012 322 374.2 321.63 377.338 320.872C377.453 320.839 377.6 320.738 377.649 320.637C379.529 317.405 381 313.972 382.03 310.353C382.815 307.593 383.272 304.765 383.517 301.921C383.534 301.803 383.468 301.668 383.403 301.584ZM380.248 312.12C379.365 314.695 378.254 317.169 376.913 319.543C376.831 319.66 376.701 319.761 376.586 319.795C373.693 320.452 370.767 320.788 367.497 320.771C364.833 320.788 361.89 320.435 358.98 319.778C358.866 319.761 358.735 319.66 358.67 319.543C356.267 315.318 354.632 310.791 353.766 305.977C353.553 304.782 353.422 303.553 353.259 302.341C353.242 302.224 353.308 302.055 353.373 301.954C357.362 297.376 362.086 293.842 367.563 291.368C367.677 291.317 367.857 291.317 367.971 291.368C373.464 293.859 378.205 297.393 382.193 302.005C382.259 302.089 382.324 302.224 382.308 302.341C381.981 305.674 381.327 308.939 380.248 312.12Z" fill="white"/>
<path fill-rule="evenodd" clip-rule="evenodd" d="M362.004 305.573C359.945 305.91 358.67 305.641 358.572 308.047C358.522 309.024 358.588 313.164 358.784 313.921C359.225 315.621 361.416 314.931 363.198 315.403C364.685 315.79 366.68 316.278 368.413 315.891C368.445 315.15 367.988 315.116 368.167 314.292C368.282 313.77 368.707 313.45 368.87 313.013C368.658 312.659 368.135 312.087 368.102 311.599C368.02 310.841 368.69 310.387 368.739 309.983C368.805 309.478 368.135 308.923 368.102 308.384C368.053 307.711 368.739 307.256 368.707 306.802C368.69 306.499 368.135 305.792 368.118 305.27C368.086 304.816 368.265 304.917 368.135 304.328C368.069 304.025 367.922 303.789 367.84 303.486C367.481 302.072 369.802 296.367 366.86 296.737C365.797 296.872 365.258 298.235 364.8 299.262C364.309 300.356 363.819 301.315 363.345 302.375L362.004 305.573Z" fill="white"/>
<path fill-rule="evenodd" clip-rule="evenodd" d="M370.505 307.055C367.808 307.475 368.364 309.31 370.08 309.579C370.636 309.68 376.357 309.748 376.864 309.377C377.354 309.024 378.597 307.627 376.096 307.156C374.902 306.937 371.698 306.87 370.505 307.055Z" fill="white"/>
<path fill-rule="evenodd" clip-rule="evenodd" d="M370.423 310.185C368.331 310.454 368.151 312.221 369.867 312.659C370.865 312.911 375.916 313.197 376.455 311.8C376.733 311.06 375.998 310.504 375.425 310.302C374.673 310.033 371.339 310.084 370.423 310.185Z" fill="white"/>
<path fill-rule="evenodd" clip-rule="evenodd" d="M369.916 304.008C368.265 304.345 368.135 306.079 370.064 306.432C371.126 306.634 373.922 306.55 375.017 306.398C376.57 306.18 376.88 304.227 374.821 303.975C373.791 303.84 370.881 303.806 369.916 304.008Z" fill="white"/>
<path fill-rule="evenodd" clip-rule="evenodd" d="M370.439 313.315C368.151 313.568 368.641 315.335 369.491 315.688C370.162 315.974 373.022 315.941 373.872 315.857C375.752 315.671 375.687 313.972 374.673 313.467C374.036 313.147 371.306 313.214 370.439 313.315Z" fill="white"/>
<path d="M39.7241 204.556C39.7241 213.827 33.1709 221.591 24.3762 223.604C22.926 223.936 21.4148 233 19.8621 233C18.3093 233 16.7982 223.936 15.348 223.604C6.55321 221.591 0 213.827 0 204.556C0 193.755 8.89255 185 19.8621 185C30.8316 185 39.7241 193.755 39.7241 204.556Z" fill="#EB292F"/>
<path d="M35.403 199.584C31.1201 194.501 25.9543 190.664 19.9385 188.038C19.8568 187.987 19.7097 187.987 19.6116 188.038C18.7452 188.442 17.8788 188.829 17.0287 189.25C12.0755 191.808 7.79256 195.242 4.16347 199.55C4.08174 199.634 4 199.803 4 199.921C4.16347 201.2 4.29425 202.496 4.50676 203.775C5.42221 209.06 7.2204 214.008 9.90135 218.603C9.98309 218.771 10.0975 218.855 10.2773 218.906C13.3997 219.647 16.571 220 19.7914 220C23.0118 220 26.1995 219.63 29.3382 218.872C29.4526 218.839 29.5998 218.738 29.6488 218.637C31.5287 215.405 33 211.972 34.0299 208.353C34.8145 205.593 35.2722 202.765 35.5175 199.921C35.5338 199.803 35.4684 199.668 35.403 199.584ZM32.248 210.12C31.3653 212.695 30.2537 215.169 28.9132 217.543C28.8314 217.66 28.7007 217.761 28.5862 217.795C25.6928 218.452 22.7666 218.788 19.4972 218.771C16.8326 218.788 13.8901 218.435 10.9803 217.778C10.8658 217.761 10.7351 217.66 10.6697 217.543C8.26663 213.318 6.6319 208.791 5.7655 203.977C5.55299 202.782 5.42221 201.553 5.25874 200.341C5.24239 200.224 5.30778 200.055 5.37317 199.954C9.36189 195.376 14.0862 191.842 19.5626 189.368C19.677 189.317 19.8568 189.317 19.9712 189.368C25.4639 191.859 30.2046 195.393 34.1933 200.005C34.2587 200.089 34.3241 200.224 34.3078 200.341C33.9808 203.674 33.3269 206.939 32.248 210.12Z" fill="white"/>
<path fill-rule="evenodd" clip-rule="evenodd" d="M14.0044 203.573C11.9447 203.91 10.6696 203.641 10.5715 206.047C10.5225 207.024 10.5879 211.164 10.784 211.921C11.2254 213.621 13.4159 212.931 15.1978 213.403C16.6854 213.79 18.6797 214.278 20.4125 213.891C20.4452 213.15 19.9875 213.116 20.1673 212.292C20.2818 211.77 20.7068 211.45 20.8703 211.013C20.6578 210.659 20.1346 210.087 20.102 209.599C20.0202 208.841 20.6905 208.387 20.7395 207.983C20.8049 207.478 20.1346 206.923 20.102 206.384C20.0529 205.711 20.7395 205.256 20.7068 204.802C20.6905 204.499 20.1346 203.792 20.1183 203.27C20.0856 202.816 20.2654 202.917 20.1346 202.328C20.0693 202.025 19.9221 201.789 19.8404 201.486C19.4808 200.072 21.8021 194.367 18.8596 194.737C17.797 194.872 17.2575 196.235 16.7998 197.262C16.3094 198.356 15.819 199.315 15.3449 200.375L14.0044 203.573Z" fill="white"/>
<path fill-rule="evenodd" clip-rule="evenodd" d="M22.505 205.055C19.8077 205.475 20.3635 207.31 22.08 207.579C22.6358 207.68 28.3573 207.748 28.8641 207.377C29.3545 207.024 30.5969 205.627 28.0958 205.156C26.9024 204.937 23.6983 204.87 22.505 205.055Z" fill="white"/>
<path fill-rule="evenodd" clip-rule="evenodd" d="M22.4232 208.185C20.3307 208.454 20.1509 210.221 21.8674 210.659C22.8646 210.911 27.9158 211.197 28.4553 209.8C28.7332 209.06 27.9976 208.504 27.4254 208.302C26.6735 208.033 23.3386 208.084 22.4232 208.185Z" fill="white"/>
<path fill-rule="evenodd" clip-rule="evenodd" d="M21.9164 202.008C20.2654 202.345 20.1346 204.079 22.0636 204.432C23.1261 204.634 25.9215 204.55 27.0168 204.398C28.5698 204.18 28.8804 202.227 26.8206 201.975C25.7907 201.84 22.8809 201.806 21.9164 202.008Z" fill="white"/>
<path fill-rule="evenodd" clip-rule="evenodd" d="M22.4394 211.315C20.1508 211.568 20.6412 213.335 21.4913 213.688C22.1615 213.974 25.0223 213.941 25.8724 213.857C27.7523 213.671 27.6869 211.972 26.6734 211.467C26.0358 211.147 23.3058 211.214 22.4394 211.315Z" fill="white"/>
</svg>
