<svg width="762" height="355" viewBox="0 0 762 355" fill="none" xmlns="http://www.w3.org/2000/svg">
<path d="M37.0002 170.5C35.5002 144 56.5002 107.5 89.5002 98C122.5 88.5 127.5 92.2999 135.5 89.5C145.5 86.0001 174 40 190.5 56C207 72 202 89.5 174 89.5C146 89.5 165 117 218 117C233.5 117 264.5 131 299.5 111.5C334.5 92 296 150.5 299.5 161C303 171.5 334 125.5 380 98C426 70.4999 459 83 454 111.5C449 140 514 125.5 531.5 108C549 90.4999 591.5 91.0001 610 73.0001C628.5 55.0001 673.5 -12.4999 711 3.00008C748.5 18.5001 706.5 92.5001 723.5 118C740.5 143.5 777 213.5 754.5 207C732 200.5 701.5 166.5 702.5 141C703.5 115.5 685 97.0001 678 125.5C671 154 655 163.5 634.5 193.5C614 223.5 623 246 638 242C653 238 680.5 244 685 294C689.5 344 668 357 659 353.5C650 350 652.5 337 659 323C665.5 309 644 302.5 628.5 309.5C613 316.5 603.5 304.5 580 290C556.5 275.5 549.5 301.5 541.5 319C533.5 336.5 467 349.5 444.5 337C422 324.5 402 319.5 366 337C330 354.5 287.5 326.5 273.5 290C259.5 253.5 179 249.5 174 267C169 284.5 151.5 279 130.5 249.5C109.5 220 78.0002 228 74.5002 242.5C71.0002 257 59.5002 266.5 44.0002 267C28.5002 267.5 37.0002 304.5 23.5003 300C10.0003 295.5 -12.9997 216 10.0003 215C33.0003 214 38.5002 197 37.0002 170.5Z" fill="#E1E1E1"/>
</svg>
