<svg width="509" height="498" viewBox="0 0 509 498" fill="none" xmlns="http://www.w3.org/2000/svg">
<path d="M632.376 105.206C630.991 150.902 607.315 144 595.411 176.489C583.506 208.978 576.097 224.877 548.724 214.847C521.351 204.816 543.59 162.48 490.428 132.182C441.113 104.077 457.333 60.916 510.735 31.4412C564.137 1.9664 633.761 59.5095 632.376 105.206Z" fill="#333333"/>
<path d="M19.7675 451.383H572.17C587.688 406.531 616.017 126.136 575.401 68.9573C459.113 52.5906 516.718 193.345 416.043 224.114C315.368 254.884 286.296 103.655 148.434 143.909C63.1602 193.952 111.424 260.676 39.1963 318.889C-14.2187 361.919 -5.09228 432.591 19.7675 451.383Z" fill="#FF8A83"/>
<path d="M547.907 391.578C537.347 440.574 614.078 426.67 594.326 464.429L488.709 473.045C472.013 466.936 462.549 430.346 480.907 389.302C506.253 332.634 555.577 355.988 547.907 391.578Z" fill="#FA4F4F"/>
<path d="M191.834 366.513C88.8518 346.191 72.6045 200.231 80.6355 177.421C155.88 193.618 190.598 284.676 194.428 349.466" fill="#FA4F4F"/>
<path d="M85.9483 189.189C85.9483 189.189 145.995 300.691 184.915 354.562" stroke="white" stroke-miterlimit="10"/>
<path d="M219.324 444.528C105.531 461.211 33.4379 316.828 33.129 290.378C116.713 279.58 186.953 360.689 215.494 426.025" fill="#FA4F4F"/>
<path d="M42.9516 300.509C42.9516 300.509 147.046 393.387 207.525 434.639" stroke="white" stroke-miterlimit="10"/>
<path d="M156.949 380.984C156.949 380.984 141.602 392.404 147.79 401.819C153.855 411.053 157.691 401.455 157.691 401.455L158.743 398.418V392.708" fill="white"/>
<path d="M162.998 407.211C162.998 407.211 147.956 419.427 146.32 447.242H153.117C153.117 447.242 157.271 427.195 167.025 424.063" fill="white"/>
<path d="M146.32 157.363L158.589 451.383H167.529V184.566L237.322 201.893V451.383H245.707V194.623L146.32 157.363Z" fill="#333333"/>
<path d="M168.406 451.383V183.59L237.425 200.981V451.383" fill="white"/>
<path d="M358.898 180.829L254.723 194.011L249.848 451.383H342.482L358.898 180.829Z" fill="#333333"/>
<path d="M394.585 439.753C392.053 444.667 381.798 446.973 381.674 448.307C381.365 450.855 381.674 450.855 381.674 450.855H404.964C404.964 450.855 405.087 440.967 403.79 439.814L394.585 439.753Z" fill="#FA4F4F"/>
<path d="M386.369 323.701C386.369 323.701 390.014 427.559 393.844 440.178C393.844 440.178 400.269 441.876 404.717 440.178C404.717 440.178 420.655 347.664 417.937 327.462" fill="#333333"/>
<path d="M454.076 433.141C457.288 435.568 459.389 440.603 459.389 440.603C455.312 445.031 453.211 450.795 450.061 450.795C446.91 450.795 440.979 450.795 440.979 450.795C440.979 448.368 440.979 447.64 444.439 446.063C446.107 445.274 446.91 439.086 446.786 436.296L454.076 433.141Z" fill="#FA4F4F"/>
<path d="M387.172 324.794C387.172 324.794 407.743 373.447 412.624 380.606C417.504 387.764 445.304 437.206 445.304 437.206C445.304 437.206 451.481 437.145 455.682 433.869C455.682 433.869 449.319 388.492 437.52 373.811C428.377 362.467 427.203 325.158 424.423 320.547" fill="#333333"/>
<path d="M400.269 248.72C400.269 248.72 391.25 253.816 387.914 264.917C381.551 286.514 382.972 324.369 386.369 325.704C389.335 326.917 416.208 330.981 425.721 322.003C427.636 315.694 420.532 298.404 422.694 263.037C423.559 248.902 414.416 245.383 414.416 245.383" fill="#FA4F4F"/>
<path d="M400.886 238.528C400.886 238.528 399.959 246.172 400.268 248.72C400.268 248.72 408.67 251.45 414.477 245.384C414.477 245.384 410.77 238.164 411.512 230.46" fill="#FFDAC6"/>
<path d="M400.887 238.528C400.887 238.528 400.331 243.199 400.207 246.414C402.431 245.929 404.779 244.473 406.941 242.167C409.289 239.68 410.833 236.647 411.451 233.614C411.389 232.582 411.389 231.49 411.513 230.398L400.887 238.528Z" fill="#333333"/>
<path d="M396.315 217.781C388.593 240.955 400.639 246.414 409.659 236.951C418.678 227.426 415.404 209.773 396.315 217.781Z" fill="#FFDAC6"/>
<path d="M411.512 234.646C418.987 230.035 419.296 215.536 414.477 215.9C409.288 210.683 390.137 210.198 390.755 218.873C391.311 226.456 404.161 221.724 404.161 221.724C403.543 226.335 406.508 227.912 408.918 226.335C412.439 224.211 413.736 229.61 409.844 231.43C409.844 231.43 409.041 234.342 411.512 234.646Z" fill="#333333"/>
<path d="M330.028 313.995C349.735 335.046 347.511 340.93 344.051 344.085C340.53 347.239 335.959 345.055 317.487 325.339C298.769 305.32 296.422 297.13 299.881 293.976C303.341 290.882 311.557 294.218 330.028 313.995Z" fill="#FFDAC6"/>
<path d="M312.855 298.89C313.287 299.314 311.125 301.134 308.592 303.379C306.059 305.684 304.083 307.625 303.712 307.14C303.279 306.716 304.639 304.046 307.171 301.802C309.642 299.496 312.422 298.404 312.855 298.89Z" fill="#333333"/>
<path d="M319.094 305.563C319.527 305.988 317.364 307.808 314.832 310.052C312.299 312.357 310.322 314.299 309.951 313.813C309.519 313.389 310.878 310.72 313.411 308.475C315.944 306.17 318.662 305.078 319.094 305.563Z" fill="#333333"/>
<path d="M325.395 312.236C325.828 312.66 323.665 314.48 321.132 316.725C318.6 319.03 316.623 320.971 316.252 320.486C315.82 320.061 317.179 317.392 319.712 315.147C322.183 312.842 324.963 311.811 325.395 312.236Z" fill="#FFD257"/>
<path d="M331.635 318.909C332.067 319.334 329.905 321.154 327.372 323.398C324.839 325.704 322.862 327.645 322.492 327.159C322.059 326.735 323.418 324.066 325.951 321.821C328.422 319.576 331.202 318.484 331.635 318.909Z" fill="#FFD257"/>
<path d="M337.874 325.581C338.306 326.006 336.144 327.826 333.611 330.071C331.078 332.376 329.102 334.317 328.731 333.832C328.299 333.407 329.658 330.738 332.19 328.493C334.723 326.249 337.442 325.157 337.874 325.581Z" fill="#FFD257"/>
<path d="M339.542 301.862L351.65 342.083C352.392 344.449 350.785 346.936 348.067 347.725L338.492 350.515C335.835 351.304 333.117 350.03 332.438 347.603L320.453 307.747C319.712 305.259 319.835 302.651 320.824 300.103L321.935 297.798C322.615 296.281 322.8 294.704 322.306 293.187L318.661 280.69L326.754 278.324L330.831 290.942C331.264 292.277 332.129 293.49 333.364 294.34L335.712 295.978C337.503 297.555 338.862 299.618 339.542 301.862Z" fill="#FF9D87"/>
<path d="M369.319 297.19C374.941 317.089 357.767 324.611 336.825 324.611C333.797 312.721 362.894 312.114 369.319 297.19Z" fill="#333333"/>
<path d="M326.446 278.506L318.477 280.811C317.735 281.054 316.932 280.629 316.685 279.84L316.5 279.294C316.253 278.566 316.685 277.778 317.488 277.535L325.457 275.23C326.199 274.987 327.002 275.412 327.249 276.2L327.434 276.746C327.558 277.474 327.187 278.263 326.446 278.506Z" fill="#FF9D87"/>
<path d="M324.407 275.594L318.538 277.293L317.179 274.503C316.932 274.017 317.179 273.411 317.735 273.229L322.739 271.773C323.295 271.591 323.851 271.955 323.913 272.561L324.407 275.594Z" fill="white"/>
<path d="M318.6 280.751L319.032 282.267L327.187 279.841L326.693 278.385L318.6 280.751Z" fill="#FA4F4F"/>
<path d="M362.831 320.668C362.214 320.668 358.878 320.365 358.507 319.819L341.271 289.79C340.654 288.88 339.665 288.334 338.553 288.334C337.441 288.334 336.453 288.88 335.835 289.79L318.599 319.758C318.043 320.668 314.09 320.911 313.286 320.304C312.36 319.758 312.113 318.545 312.731 317.635L332.684 287.667C333.982 285.665 336.206 284.512 338.615 284.512C341.024 284.512 343.248 285.726 344.546 287.667L364.499 317.635C365.055 318.545 364.808 319.698 363.943 320.304C363.573 320.547 363.202 320.668 362.831 320.668Z" fill="#FA4F4F"/>
<path d="M370.431 372.295H304.638L307.295 361.072L304.638 312.722H370.431L367.712 361.072L370.431 372.295Z" fill="#FA4F4F"/>
<path d="M343.928 282.267C336.948 280.569 333.426 284.573 334.291 288.273C335.156 291.974 340.407 290.154 340.469 287.545H343.434L343.928 282.267Z" fill="#FFDAC6"/>
<path d="M392.608 295.95C397.36 294.2 416.963 276.117 419.933 262.701L383.698 288.367V297.117C385.084 297.311 388.807 297.35 392.608 295.95Z" fill="#333333"/>
<path d="M343.435 281.661C343.435 281.661 340.902 285.786 342.632 288.152C342.632 288.152 369.443 295.674 380.377 294.582C391.25 293.49 408.3 278.81 419.482 263.583C424.301 257.092 412.625 242.775 400.208 254.119C389.026 264.371 379.76 278.992 379.76 278.992C379.76 278.992 350.416 281.6 343.435 281.661Z" fill="#FA4F4F"/>
<path d="M152.501 367.18C155.175 367.18 157.363 364.979 157.363 362.349C157.363 359.719 155.175 357.518 152.501 357.518C149.827 357.518 147.7 359.719 147.7 362.349C147.7 364.979 149.827 367.18 152.501 367.18Z" fill="#333333"/>
<path d="M142.869 383.745C145.539 383.745 147.7 381.583 147.7 378.913C147.7 376.243 145.539 374.082 142.869 374.082C140.199 374.082 138.038 376.243 138.038 378.913C138.101 381.647 140.263 383.745 142.869 383.745Z" fill="#333333"/>
<path d="M140.108 380.984C142.025 380.984 143.559 379.143 143.559 376.843C143.559 374.542 142.025 372.702 140.108 372.702C138.191 372.702 136.657 374.542 136.657 376.843C136.657 379.143 138.191 380.984 140.108 380.984Z" fill="#333333"/>
<path d="M140.799 378.223C143.832 378.223 146.32 375.735 146.32 372.702C146.32 369.668 143.832 367.18 140.799 367.18C137.765 367.18 135.278 369.668 135.278 372.702C135.217 375.735 137.705 378.223 140.799 378.223Z" fill="#333333"/>
<path d="M141.489 372.702C144.902 372.702 147.7 370.214 147.7 367.18C147.7 364.146 144.902 361.659 141.489 361.659C138.076 361.659 135.278 364.146 135.278 367.18C135.21 370.275 138.008 372.702 141.489 372.702Z" fill="#333333"/>
<path d="M147.01 368.561C150.446 368.561 153.222 366.094 153.222 363.039C153.222 359.985 150.446 357.518 147.01 357.518C143.574 357.518 140.798 359.985 140.798 363.039C140.798 366.094 143.574 368.561 147.01 368.561Z" fill="#333333"/>
<path d="M157.363 372.702C159.648 372.702 161.504 370.845 161.504 368.561C161.504 366.276 159.648 364.419 157.363 364.419C155.078 364.419 153.222 366.276 153.222 368.561C153.222 370.845 155.078 372.702 157.363 372.702Z" fill="#333333"/>
<path d="M156.673 368.561C158.59 368.561 160.124 367.027 160.124 365.11C160.124 363.192 158.59 361.659 156.673 361.659C154.755 361.659 153.222 363.192 153.222 365.11C153.222 367.027 154.755 368.561 156.673 368.561Z" fill="#333333"/>
<path d="M156.974 367.564C168.592 380.767 155.296 389.313 145.79 383.007C134.296 375.58 144.61 357.072 156.974 367.564Z" fill="#FFDAC6"/>
<path d="M146.32 372.702C149.394 372.702 151.841 370.506 151.841 367.87C151.841 365.235 149.332 363.039 146.32 363.039C143.245 363.039 140.798 365.235 140.798 367.87C140.798 370.506 143.245 372.702 146.32 372.702Z" fill="#333333"/>
<path d="M142.869 379.604C144.773 379.604 146.32 378.057 146.32 376.153C146.32 374.249 144.773 372.702 142.869 372.702C140.965 372.702 139.418 374.249 139.418 376.153C139.477 378.057 141.024 379.604 142.869 379.604Z" fill="#333333"/>
<path d="M151.841 368.561C154.142 368.561 155.982 366.72 155.982 364.419C155.982 362.119 154.142 360.278 151.841 360.278C149.541 360.278 147.7 362.119 147.7 364.419C147.7 366.72 149.541 368.561 151.841 368.561Z" fill="#333333"/>
<path d="M142.869 374.082C144.773 374.082 146.32 372.535 146.32 370.631C146.32 368.727 144.773 367.18 142.869 367.18C140.965 367.18 139.418 368.727 139.418 370.631C139.418 372.535 140.965 374.082 142.869 374.082Z" fill="#333333"/>
<path d="M157.278 396.446C160.14 395.669 159.58 396.64 158.211 397.87C161.634 397.741 159.58 399.877 158.771 400.136C160.887 400.33 158.958 402.596 157.091 403.049C155.224 403.438 152.486 398.194 157.278 396.446Z" fill="url(#paint0_linear)"/>
<path d="M222.661 261.963C222.661 261.963 228.653 290.536 214.012 286.29C183.68 277.493 188.436 260.204 198.444 248.92C206.599 239.76 198.63 214.645 219.078 216.95C223.711 217.496 228.221 219.68 229.95 224.23C235.449 238.547 220.128 250.316 221.858 260.325" fill="#333333"/>
<path d="M229.024 369.097C228.468 377.833 222.105 421.33 221.24 437.102L227.912 449.721L214.506 441.956L215.495 436.374C215.247 409.743 213.95 384.445 215.062 371.584C215.186 370.25 215.371 355.266 215.371 355.266H230.568C230.568 355.144 229.209 366.731 229.024 369.097Z" fill="#FFDAC6"/>
<path d="M227.541 448.386C227.541 448.386 230.753 448.811 230.383 450.995H223.773C223.773 450.995 217.78 444.322 216.421 444.322C215.062 444.322 214.815 450.995 214.815 450.995H213.456C213.209 444.201 211.108 438.983 215.433 436.8C215.433 436.739 223.093 448.144 227.541 448.386Z" fill="#333333"/>
<path d="M211.294 369.097C210.738 377.833 204.375 421.329 203.51 437.102L210.182 449.721L196.776 441.895L197.765 436.314C197.517 409.682 196.22 384.385 197.332 371.524C197.456 370.189 197.641 355.205 197.641 355.205H212.776C212.838 355.144 211.417 366.731 211.294 369.097Z" fill="#FFDAC6"/>
<path d="M209.873 448.386C209.873 448.386 213.085 448.811 212.714 450.995H206.043C206.043 450.995 200.05 444.322 198.691 444.322C197.332 444.322 197.085 450.995 197.085 450.995H195.726C195.479 444.201 193.378 438.983 197.703 436.8C197.764 436.739 205.363 448.144 209.873 448.386Z" fill="#333333"/>
<path d="M205.672 298.18C184.359 313.528 194.243 336.945 175.772 367.823C175.772 367.823 207.402 384.567 234.275 372.495C234.275 372.495 236.437 317.472 226.861 298.787" fill="#FA4F4F"/>
<path d="M276.097 293.691C222.908 294.601 210.491 253.895 221.116 252.499C225.317 251.711 226.923 254.987 229.394 259.84C234.089 269.243 241.873 284.713 276.468 289.384C276.592 289.444 277.024 289.141 277.58 288.777C278.321 288.231 279.433 287.503 280.545 287.078C283.634 286.836 284.932 285.865 284.623 286.714C284.19 287.988 281.719 288.11 281.719 288.11C281.719 288.11 287.712 287.806 289.75 287.442C290.986 287.321 289.379 288.959 287.897 289.141C288.206 289.748 287.712 290.415 286.661 290.718C284.87 293.812 280.731 293.509 276.097 293.691Z" fill="#FFDAC6"/>
<path d="M219.448 252.015C231.186 252.015 227.479 256.322 232.174 268.333C234.584 274.4 226.367 278.646 226.862 298.787C226.862 298.787 219.943 302.852 205.672 298.12C204.622 271.791 194.429 251.287 210.552 251.347" fill="#FA4F4F"/>
<path d="M212.776 238.79L211.17 251.408C211.17 251.408 227.726 265.179 220.004 252.014L220.56 242.793L212.776 238.79Z" fill="#FFDAC6"/>
<path d="M215.186 246.433C216.915 247.889 218.583 248.678 220.19 248.981L220.56 242.733L212.776 238.729L212.22 242.854C213.023 244.189 213.95 245.402 215.186 246.433Z" fill="#333333"/>
<path d="M218.769 221.318C218.769 221.318 215.309 221.803 212.838 224.958C210.367 228.112 207.649 237.879 213.827 243.157C220.004 248.435 226.12 242.429 227.047 236.12C227.912 229.75 227.726 221.136 218.769 221.318Z" fill="#FFDAC6"/>
<path d="M218.398 238.607H223.958C223.031 242.065 218.398 240.488 218.398 238.607Z" fill="white"/>
<path d="M255.65 301.941C202.83 296.057 195.911 254.076 206.599 254.076C210.861 253.834 210.8 257.292 212.591 262.448C216.051 272.337 222.908 288.716 256.576 297.755C256.7 297.816 257.132 297.634 257.75 297.27C258.615 296.845 259.727 296.239 260.962 295.935C264.113 296.117 265.472 295.268 265.04 296.057C264.422 297.27 262.013 297.088 262.013 297.088C262.013 297.088 268.005 297.512 270.105 297.452C271.341 297.452 269.488 298.908 268.067 298.908C268.314 299.514 267.758 300.182 266.646 300.364C264.36 303.154 260.221 302.305 255.65 301.941Z" fill="#FFDAC6"/>
<path d="M223.835 218.164C223.835 233.754 213.58 230.6 208.205 241.216V221.318L223.835 218.164Z" fill="#333333"/>
<defs>
<linearGradient id="paint0_linear" x1="170.173" y1="391.189" x2="148.119" y2="404.642" gradientUnits="userSpaceOnUse">
<stop stop-color="#FFDCC9"/>
<stop offset="1" stop-color="#FDC8AA"/>
</linearGradient>
</defs>
</svg>
