<svg width="25" height="24" viewBox="0 0 25 24" fill="none" xmlns="http://www.w3.org/2000/svg">
<ellipse cx="12.0769" cy="12" rx="12.0769" ry="12" fill="#EB292F"/>
<path d="M7.72653 12.6433C7.32242 12.2668 6.68965 12.2893 6.31321 12.6934C5.93676 13.0975 5.9592 13.7303 6.36331 14.1067L7.72653 12.6433ZM17.8038 9.71922C18.201 9.3355 18.212 8.70243 17.8282 8.30521C17.4445 7.908 16.8115 7.89706 16.4142 8.28078L17.8038 9.71922ZM6.36331 14.1067L8.48713 16.0851L9.85036 14.6217L7.72653 12.6433L6.36331 14.1067ZM11.2399 16.0601L17.8038 9.71922L16.4142 8.28078L9.85036 14.6217L11.2399 16.0601ZM8.48713 16.0851C9.2654 16.8101 10.475 16.7991 11.2399 16.0601L9.85036 14.6217L9.85036 14.6217L8.48713 16.0851Z" fill="white"/>
</svg>
