<svg width="0" height="0" class="hidden">
  <symbol fill="none" xmlns="http://www.w3.org/2000/svg" viewBox="0 0 24 24" id="alarm-clock">
    <path fill-rule="evenodd" clip-rule="evenodd" d="M6.31381 1.41884C6.63482 1.86825 6.53073 2.4928 6.08132 2.81381L2.58132 5.31381C2.1319 5.63482 1.50735 5.53073 1.18634 5.08132C0.865335 4.6319 0.969427 4.00735 1.41884 3.68634L4.91884 1.18634C5.36825 0.865335 5.9928 0.969427 6.31381 1.41884ZM17.6863 1.41884C18.0074 0.969427 18.6319 0.865335 19.0813 1.18634L22.5813 3.68634C23.0307 4.00735 23.1348 4.6319 22.8138 5.08132C22.4928 5.53073 21.8683 5.63482 21.4188 5.31381L17.9188 2.81381C17.4694 2.4928 17.3653 1.86825 17.6863 1.41884ZM1.83339 13.0001C1.83339 7.38517 6.38514 2.83342 12.0001 2.83342C17.615 2.83342 22.1667 7.38517 22.1667 13.0001C22.1667 18.615 17.615 23.1668 12.0001 23.1668C6.38514 23.1668 1.83339 18.615 1.83339 13.0001ZM12.0001 4.83342C7.48971 4.83342 3.83339 8.48974 3.83339 13.0001C3.83339 17.5104 7.48971 21.1668 12.0001 21.1668C16.5104 21.1668 20.1667 17.5104 20.1667 13.0001C20.1667 8.48974 16.5104 4.83342 12.0001 4.83342ZM11.8799 6.67685C12.4322 6.67691 12.8798 7.12468 12.8798 7.67696L12.8792 12.7671L16.4724 16.3603C16.863 16.7508 16.863 17.384 16.4724 17.7745C16.0819 18.165 15.4487 18.165 15.0582 17.7745L11.1721 13.8884C10.9845 13.7008 10.8791 13.4464 10.8792 13.1811L10.8798 7.67674C10.8798 7.12446 11.3276 6.67679 11.8799 6.67685Z" fill="#EF5458"></path>
  </symbol>
  <symbol fill="none" xmlns="http://www.w3.org/2000/svg" viewBox="0 0 24 24" id="bar-code">
    <path fill-rule="evenodd" clip-rule="evenodd" d="M3 2C3.55228 2 4 2.44772 4 3V7C4 7.55228 3.55228 8 3 8C2.44772 8 2 7.55228 2 7V3C2 2.44772 2.44772 2 3 2ZM6.6 2C7.15228 2 7.6 2.44772 7.6 3V7C7.6 7.55228 7.15228 8 6.6 8C6.04772 8 5.6 7.55228 5.6 7V3C5.6 2.44772 6.04772 2 6.6 2ZM10.2 2C10.7523 2 11.2 2.44772 11.2 3V7C11.2 7.55228 10.7523 8 10.2 8C9.64771 8 9.2 7.55228 9.2 7V3C9.2 2.44772 9.64771 2 10.2 2ZM13.8 2C14.3523 2 14.8 2.44772 14.8 3V7C14.8 7.55228 14.3523 8 13.8 8C13.2477 8 12.8 7.55228 12.8 7V3C12.8 2.44772 13.2477 2 13.8 2ZM17.4 2C17.9523 2 18.4 2.44772 18.4 3V7C18.4 7.55228 17.9523 8 17.4 8C16.8477 8 16.4 7.55228 16.4 7V3C16.4 2.44772 16.8477 2 17.4 2ZM21 2C21.5523 2 22 2.44772 22 3V7C22 7.55228 21.5523 8 21 8C20.4477 8 20 7.55228 20 7V3C20 2.44772 20.4477 2 21 2ZM1 10C1 9.44772 1.44772 9 2 9H22C22.5523 9 23 9.44772 23 10C23 10.5523 22.5523 11 22 11H2C1.44772 11 1 10.5523 1 10ZM3 11.9977C3.55228 11.9977 4 12.4455 4 12.9977V18.9996C4 19.5518 3.55228 19.9996 3 19.9996C2.44772 19.9996 2 19.5518 2 18.9996V12.9977C2 12.4455 2.44772 11.9977 3 11.9977ZM6.6 12C7.15228 12 7.6 12.4477 7.6 13V17C7.6 17.5523 7.15228 18 6.6 18C6.04772 18 5.6 17.5523 5.6 17V13C5.6 12.4477 6.04772 12 6.6 12ZM10.2 12C10.7523 12 11.2 12.4477 11.2 13V21C11.2 21.5523 10.7523 22 10.2 22C9.64771 22 9.2 21.5523 9.2 21V13C9.2 12.4477 9.64771 12 10.2 12ZM13.8 12C14.3523 12 14.8 12.4477 14.8 13V17C14.8 17.5523 14.3523 18 13.8 18C13.2477 18 12.8 17.5523 12.8 17V13C12.8 12.4477 13.2477 12 13.8 12ZM17.4 12C17.9523 12 18.4 12.4477 18.4 13V17C18.4 17.5523 17.9523 18 17.4 18C16.8477 18 16.4 17.5523 16.4 17V13C16.4 12.4477 16.8477 12 17.4 12ZM21 12C21.5523 12 22 12.4477 22 13V19C22 19.5523 21.5523 20 21 20C20.4477 20 20 19.5523 20 19V13C20 12.4477 20.4477 12 21 12Z" fill="#EF5458"></path>
  </symbol>
  <symbol fill="none" xmlns="http://www.w3.org/2000/svg" viewBox="0 0 24 24" id="boxing-one">
    <path fill-rule="evenodd" clip-rule="evenodd" d="M2 10.6038C1.98284 10.5889 1.96633 10.574 1.95049 10.5592C1.72104 10.345 1.54707 10.0802 1.41807 9.82221C1.15957 9.3052 1 8.65167 1 8V6C1 3.23772 3.23772 1 6 1H18C20.7623 1 23 3.23772 23 6V8C23 9.30732 22.3711 10.4692 21.3997 11.1994C21.7766 11.7009 22 12.3244 22 13V15C22 16.8638 20.7252 18.4299 19 18.874V21C19 22.1023 18.1023 23 17 23H7C5.88946 23 5 22.099 5 21V18.874C3.27477 18.4299 2 16.8638 2 15V10.6038ZM3 6C3 4.34228 4.34228 3 6 3H18C19.6577 3 21 4.34228 21 6V8C21 9.10271 20.1027 10 19 10H10.9645C10.7217 8.30437 9.26253 7 7.5 7H5.5C4.5212 7 3.63595 7.40226 3.00062 8.05041C3.00021 8.03362 3 8.01681 3 8V6ZM10.6629 12C10.101 13.1822 8.89556 14 7.5 14H6.5C5.94772 14 5.5 13.5523 5.5 13C5.5 12.4477 5.94772 12 6.5 12H7.5C8.32772 12 9 11.3277 9 10.5C9 9.67229 8.32772 9 7.5 9H5.5C4.67228 9 4 9.67229 4 10.5V15C4 16.1046 4.89543 17 6 17H18C19.1046 17 20 16.1046 20 15V13C20 12.4477 19.5523 12 19 12H10.6629ZM7 21V19H17V21H7Z" fill="#EF5458"></path>
  </symbol>
  <symbol fill="none" xmlns="http://www.w3.org/2000/svg" viewBox="0 0 24 24" id="building-four">
    <path fill-rule="evenodd" clip-rule="evenodd" d="M7.89029 6.20739C8.16307 5.99755 8.52459 5.94273 8.84731 6.06226L22.3473 11.0623C22.7396 11.2076 23 11.5817 23 12V22C23 22.5523 22.5523 23 22 23H2C1.44772 23 1 22.5523 1 22V12C1 11.6895 1.1442 11.3967 1.39029 11.2074L7.89029 6.20739ZM14 21H16.5V16.7208L14 15.8874V21ZM18.5 21V16C18.5 15.5696 18.2246 15.1874 17.8162 15.0513L13.3162 13.5513C13.0113 13.4497 12.6761 13.5008 12.4153 13.6888C12.1545 13.8767 12 14.1786 12 14.5V21H9.5V8.43676L21 12.696V21H18.5ZM7.5 9.03087V21H3V12.4924L7.5 9.03087Z" fill="#EF5458"></path>
  </symbol>
  <symbol fill="none" xmlns="http://www.w3.org/2000/svg" viewBox="0 0 24 24" id="certificate">
    <path d="M21 2C22.018 2 22.87 2.76384 22.9916 3.82579L23 4V17C23 18.018 22.2362 18.87 21.1742 18.9916L21 19H18V21C18 21.7043 17.2979 22.1753 16.6586 21.9402L16.5528 21.8944L15 21.118L13.4472 21.8944C12.8173 22.2094 12.082 21.792 12.0064 21.1151L12 21V19H3C2.03562 19 1.22018 18.3145 1.03358 17.3393L1.00839 17.1742L1 17V4C1 2.98205 1.76385 2.13004 2.82579 2.00839L3 2H21ZM16 17.391L15.7664 17.4378C15.6053 17.465 15.438 17.4836 15.2646 17.4929L15.2198 17.4941C15.147 17.498 15.0737 17.5 15 17.5L14.8004 17.4951C14.7983 17.495 14.7963 17.4949 14.7943 17.4948C14.5133 17.4842 14.2487 17.4491 14.0002 17.393L14 19.381L14.5528 19.1056C14.8343 18.9648 15.1657 18.9648 15.4472 19.1056L16 19.382V17.391ZM3.05759 3.99834L3 4L2.99834 16.9424L3.00003 17L12 17L11.999 16.1447C11.3772 15.4397 11 14.5139 11 13.5C11 11.2909 12.7909 9.5 15 9.5C17.2091 9.5 19 11.2909 19 13.5C19 14.5139 18.6227 15.4397 18.001 16.1447L18 17L20.9424 17.0017L21 16.999L21.0017 4.05759L20.999 4L3.05759 3.99834ZM15 11.5C13.8954 11.5 13 12.3954 13 13.5C13 14.6046 13.8954 15.5 15 15.5L14.923 15.497L15 15.5C15.0267 15.5 15.0529 15.4997 15.0788 15.499C15.5643 15.48 16.0066 15.2874 16.3439 14.9812C16.3459 14.9773 16.3486 14.9749 16.3513 14.9726L16.3439 14.9812C16.7469 14.6154 17 14.0872 17 13.5C17 12.3954 16.1046 11.5 15 11.5ZM8 13C8.55228 13 9 13.4477 9 14C9 14.5128 8.61396 14.9355 8.11662 14.9933L8 15H6C5.44772 15 5 14.5523 5 14C5 13.4872 5.38604 13.0645 5.88338 13.0067L6 13H8ZM9 9.5C9.55229 9.5 10 9.94772 10 10.5C10 11.0128 9.61396 11.4355 9.11662 11.4933L9 11.5H6C5.44772 11.5 5 11.0523 5 10.5C5 9.98716 5.38604 9.56449 5.88338 9.50673L6 9.5H9ZM18 6C18.5523 6 19 6.44772 19 7C19 7.51284 18.614 7.93551 18.1166 7.99327L18 8H6C5.44772 8 5 7.55228 5 7C5 6.48716 5.38604 6.06449 5.88338 6.00673L6 6H18Z" fill="#EF5458"></path>
  </symbol>
  <symbol fill="none" xmlns="http://www.w3.org/2000/svg" viewBox="0 0 24 24" id="creative">
    <path d="M19.5 2C20.8807 2 22 3.1193 22 4.50001V19.5C22 20.8807 20.8807 22 19.5 22H4.50003C3.11931 22 2 20.8807 2 19.5V4.5C2 3.11929 3.11929 2 4.5 2H19.5ZM19.5 4H4.5C4.22386 4 4 4.22386 4 4.5V19.5C4 19.7761 4.22386 20 4.50003 20H19.5C19.7762 20 20 19.7762 20 19.5V4.50001C20 4.22386 19.7761 4 19.5 4ZM11.1017 8.71795C11.4665 7.97335 12.5268 7.97063 12.8954 8.71334L14.129 11.199L16.8811 11.6005C17.661 11.7142 17.9954 12.6317 17.5148 13.219L17.4365 13.3044L15.434 15.265L15.9091 17.986C16.046 18.7707 15.2617 19.3773 14.5501 19.0858L14.4536 19.0404L12 17.732L9.54647 19.0403C8.84299 19.4154 8.02172 18.8582 8.07795 18.0906L8.09116 17.9847L8.569 15.265L6.56413 13.3051C6.00006 12.7536 6.27082 11.8141 7.00599 11.6232L7.1197 11.6003L9.885 11.199L11.1017 8.71795ZM12.005 11.418L11.4499 12.5531C11.3046 12.8497 11.0222 13.0554 10.6954 13.1028L9.408 13.289L10.3446 14.204C10.5511 14.406 10.6588 14.6857 10.6442 14.9702L10.6304 15.0923L10.416 16.31L11.5293 15.7169C11.7865 15.5797 12.0888 15.5626 12.3573 15.6654L12.47 15.7168L13.586 16.311L13.3735 15.091C13.324 14.8072 13.3995 14.5179 13.5768 14.2956L13.659 14.2047L14.594 13.288L13.3221 13.1027C13.038 13.0613 12.7874 12.9001 12.6315 12.6636L12.5706 12.5577L12.005 11.418ZM14.8421 5.3158C15.3944 5.3158 15.8421 5.76352 15.8421 6.3158C15.8421 6.82864 15.4561 7.25131 14.9587 7.30907L14.8421 7.3158H9.1579C8.60561 7.3158 8.1579 6.86808 8.1579 6.3158C8.1579 5.80296 8.54394 5.38029 9.04127 5.32253L9.1579 5.3158H14.8421Z" fill="#EF5458"></path>
  </symbol>
  <symbol fill="none" xmlns="http://www.w3.org/2000/svg" viewBox="0 0 24 24" id="data-three">
    <path d="M12.338 1.25049L13.006 1.2625C13.1164 1.2655 13.2263 1.26899 13.3357 1.27298L13.9858 1.30279L14.6225 1.34431C14.9373 1.36798 15.2467 1.396 15.55 1.42829L16.1484 1.49855C16.345 1.52386 16.5388 1.55105 16.7295 1.5801L17.2922 1.6728C20.703 2.27863 23 3.51394 23 5.24898C23 6.13109 22.4063 6.88403 21.3743 7.49074C22.4125 8.08173 23 8.8242 23 9.74898C23 10.6309 22.4066 11.3837 21.3751 11.9903L21.3752 11.9904L21.3908 11.9993C22.4188 12.5897 23 13.3291 23 14.249C23 14.406 22.9812 14.5588 22.9445 14.7076C22.9279 14.7747 22.9074 14.8418 22.8832 14.908C22.8601 14.9715 22.8337 15.0338 22.804 15.0954C22.7861 15.1327 22.7669 15.1698 22.7464 15.2065C22.7352 15.2269 22.7234 15.2474 22.7112 15.2679C22.7002 15.2863 22.6893 15.3039 22.6782 15.3215C22.6593 15.3515 22.6392 15.3818 22.6182 15.4118C22.6113 15.4217 22.6044 15.4315 22.5975 15.4411C22.5733 15.4749 22.5478 15.5086 22.5214 15.5419C22.5159 15.5488 22.5109 15.5552 22.5058 15.5615C22.479 15.5947 22.4508 15.628 22.4215 15.6611C22.3988 15.6868 22.3756 15.7121 22.3519 15.7372C22.3374 15.7525 22.3225 15.768 22.3073 15.7834C22.2832 15.8079 22.2591 15.8316 22.2345 15.8551C22.2131 15.8756 22.1914 15.8959 22.1692 15.9161C22.1485 15.9349 22.1273 15.9537 22.1058 15.9725C22.0834 15.992 22.0606 16.0113 22.0375 16.0305C22.0142 16.0499 21.9901 16.0694 21.9657 16.0888C21.9406 16.1087 21.9155 16.1282 21.89 16.1476C21.8668 16.1651 21.843 16.1828 21.8189 16.2004C21.7873 16.2235 21.7543 16.2469 21.7207 16.2702C21.6987 16.2854 21.6771 16.3001 21.6552 16.3147C21.5701 16.3717 21.4809 16.4277 21.3881 16.4826L21.3752 16.4904C22.4129 17.0822 23 17.8245 23 18.749C23 20.484 20.703 21.7193 17.2922 22.3252L16.7295 22.4179C16.5388 22.4469 16.345 22.4741 16.1484 22.4994L15.55 22.5697C15.2467 22.602 14.9373 22.63 14.6225 22.6536L13.9858 22.6952L13.3357 22.725C13.2263 22.729 13.1164 22.7325 13.006 22.7355L12.338 22.7475C12.2258 22.7485 12.1131 22.749 12 22.749L11.662 22.7475L10.994 22.7355C10.8836 22.7325 10.7737 22.729 10.6643 22.725L10.0142 22.6952L9.37754 22.6536C9.06272 22.63 8.75333 22.602 8.45 22.5697L7.85162 22.4994C7.7533 22.4868 7.6557 22.4736 7.55884 22.46L6.9868 22.3729C3.4228 21.7857 1 20.5309 1 18.749C1 17.8291 1.58119 17.0897 2.60918 16.4993L2.62494 16.4903C2.61781 16.4861 2.61069 16.4819 2.6036 16.4777C2.51407 16.4246 2.4275 16.3701 2.34441 16.3145C2.32291 16.3001 2.30129 16.2854 2.27991 16.2706C2.24572 16.2469 2.21274 16.2235 2.18036 16.1999C2.15695 16.1828 2.13317 16.1651 2.10973 16.1473C2.0845 16.1282 2.05936 16.1087 2.03464 16.0891C2.00989 16.0694 1.98584 16.0499 1.9622 16.0303C1.93938 16.0113 1.91662 15.992 1.89425 15.9725C1.87265 15.9537 1.85147 15.9349 1.83066 15.9159C1.80864 15.8959 1.7869 15.8756 1.76557 15.8552C1.74086 15.8316 1.71679 15.8079 1.69327 15.784C1.67752 15.768 1.66256 15.7525 1.64784 15.7369C1.62436 15.7121 1.60119 15.6868 1.57865 15.6613C1.54923 15.628 1.52104 15.5947 1.49391 15.5611C1.48912 15.5552 1.48406 15.5488 1.47904 15.5425C1.45215 15.5086 1.42674 15.4749 1.40238 15.441C1.39556 15.4315 1.38869 15.4217 1.38191 15.412C1.36085 15.3818 1.34074 15.3515 1.32146 15.321C1.31065 15.3039 1.29979 15.2863 1.2892 15.2685C1.27664 15.2474 1.26482 15.2269 1.25338 15.2062C1.23315 15.1698 1.21393 15.1327 1.19591 15.0953C1.16632 15.0338 1.13994 14.9715 1.11688 14.9084C1.09259 14.8418 1.07208 14.7747 1.05533 14.7067C1.0188 14.5589 1 14.406 1 14.249C1 13.3242 1.58746 12.5817 2.6258 11.9898C1.59371 11.384 1 10.6311 1 9.74898C1 8.82449 1.58709 8.0822 2.62482 7.4904C1.59343 6.88367 1 6.13088 1 5.24898C1 3.46704 3.4228 2.21222 6.9868 1.62506L7.55884 1.53792C7.6557 1.52433 7.7533 1.51121 7.85162 1.49855L8.45 1.42829C8.75333 1.396 9.06272 1.36798 9.37754 1.34431L10.0142 1.30279L10.6643 1.27298C10.7737 1.26899 10.8836 1.2655 10.994 1.2625L11.662 1.25049H12.338ZM11.8307 18.2486L11.662 18.2475L10.994 18.2355C10.8836 18.2325 10.7737 18.229 10.6643 18.225L10.0142 18.1952L9.37754 18.1536C9.06272 18.13 8.75333 18.102 8.45 18.0697L7.85162 17.9994C7.7533 17.9868 7.6557 17.9736 7.55884 17.96L7.27052 17.9179L7.132 17.8945L6.9868 17.8729C6.70686 17.8268 6.43396 17.7765 6.16872 17.7222C6.13265 17.7149 6.09666 17.7074 6.06081 17.6999C5.8243 17.6501 5.59388 17.597 5.37017 17.5407L5.64141 17.4657C4.69145 17.7172 3.94198 18.0185 3.45952 18.3323C3.11484 18.5566 3 18.712 3 18.749C3 18.9528 3.27641 19.1865 3.77269 19.4204L4.03889 19.5373C4.13356 19.5762 4.23407 19.6149 4.34017 19.6534L4.67494 19.7679C4.79194 19.8058 4.91427 19.8432 5.04165 19.8801L5.43872 19.989C5.50734 20.0069 5.57716 20.0245 5.64815 20.042L6.08782 20.1446C6.23887 20.178 6.39432 20.2105 6.55392 20.242L7.04488 20.3333L7.55914 20.4177C7.64671 20.4311 7.73518 20.4443 7.82452 20.457L8.37077 20.5296L8.93639 20.5932L9.5198 20.6471C9.71707 20.6634 9.91703 20.6779 10.1194 20.6905L10.7337 20.7224L11.3611 20.7422C11.5722 20.7467 11.7853 20.749 12 20.749C12.2147 20.749 12.4278 20.7467 12.6389 20.7422L13.2663 20.7224L13.8806 20.6905C14.083 20.6779 14.2829 20.6634 14.4802 20.6471L15.0636 20.5932L15.6292 20.5296L16.1755 20.457L16.7008 20.3764C16.7865 20.3623 16.8713 20.3479 16.9551 20.3333L17.4461 20.242L17.6823 20.194L18.1354 20.0939C18.282 20.0597 18.424 20.0247 18.5613 19.989L18.9583 19.8801C19.022 19.8616 19.0845 19.8431 19.1456 19.8244L19.4965 19.7109C19.664 19.6536 19.8191 19.5956 19.9611 19.5373L20.2273 19.4204C20.7236 19.1865 21 18.9528 21 18.749C21 18.712 20.8852 18.5566 20.5405 18.3323C20.105 18.0491 19.4521 17.776 18.6305 17.5406C18.4061 17.597 18.1757 17.6501 17.939 17.6999C17.9033 17.7074 17.8673 17.7149 17.8312 17.7223C17.566 17.7765 17.2931 17.8268 17.0132 17.8729L16.867 17.8945L16.7295 17.9179L16.4412 17.96C16.3443 17.9736 16.2467 17.9868 16.1484 17.9994L15.55 18.0697C15.2467 18.102 14.9373 18.13 14.6225 18.1536L13.9858 18.1952L13.3357 18.225C13.2263 18.229 13.1164 18.2325 13.006 18.2355L12.338 18.2475L12.1693 18.2486H11.8307ZM18.627 13.0395L18.4813 13.0773C18.1027 13.169 17.7056 13.2517 17.2922 13.3252L16.7295 13.4179C16.5388 13.4469 16.345 13.4741 16.1484 13.4994L15.55 13.5697C15.2467 13.602 14.9373 13.63 14.6225 13.6536L13.9858 13.6952L13.3357 13.725C13.2263 13.729 13.1164 13.7325 13.006 13.7355L12.8231 13.7392C12.5507 13.7457 12.2761 13.749 12 13.749L12.384 13.7455L12.338 13.7475C12.2258 13.7485 12.1131 13.749 12 13.749L11.662 13.7475L11.6148 13.7469C11.4683 13.7452 11.3223 13.7427 11.1769 13.7392L10.994 13.7355C10.8836 13.7325 10.7737 13.729 10.6643 13.725L10.0142 13.6952L9.37754 13.6536C9.06272 13.63 8.75333 13.602 8.45 13.5697L7.85162 13.4994C7.7533 13.4868 7.6557 13.4736 7.55884 13.46L6.9868 13.3729C6.41701 13.279 5.87639 13.1681 5.37017 13.0407L5.03853 13.1403C4.37154 13.3517 3.83477 13.5882 3.45952 13.8323C3.11484 14.0566 3 14.212 3 14.249C3 14.4528 3.27641 14.6865 3.77269 14.9204L4.03889 15.0373C4.13356 15.0762 4.23407 15.1149 4.34017 15.1534L4.587 15.2375L4.8544 15.3244C4.88497 15.3337 4.91586 15.343 4.94707 15.3523L5.04165 15.3801L5.43872 15.489C5.46421 15.4957 5.48986 15.5023 5.51568 15.5088C5.58797 15.5168 5.65738 15.5339 5.72401 15.5579L5.948 15.6125L6.31766 15.694C6.39536 15.7102 6.47412 15.7262 6.55392 15.742L7.04488 15.8333L7.384 15.8885L7.82452 15.957L8.37077 16.0296L8.93639 16.0932L9.5198 16.1471C9.71707 16.1634 9.91703 16.1779 10.1194 16.1905L10.7337 16.2224L11.3611 16.2422C11.5722 16.2467 11.7853 16.249 12 16.249C12.2147 16.249 12.4278 16.2467 12.6389 16.2422L13.2663 16.2224L13.8806 16.1905C14.083 16.1779 14.2829 16.1634 14.4802 16.1471L15.0636 16.0932L15.6292 16.0296L16.1755 15.957L16.615 15.8885L16.9551 15.8333L17.4461 15.742C17.6057 15.7105 17.7611 15.678 17.9122 15.6446L18.04 15.6145L18.278 15.5572C18.344 15.5336 18.4128 15.5167 18.4831 15.5074C18.5101 15.5023 18.5358 15.4957 18.5613 15.489L18.9583 15.3801C19.022 15.3616 19.0845 15.3431 19.1456 15.3244L19.412 15.2375L19.6598 15.1534C19.7129 15.1341 19.7645 15.1148 19.8148 15.0955L19.9611 15.0373L20.2273 14.9204C20.7236 14.6865 21 14.4528 21 14.249C21 14.212 20.8852 14.0566 20.5405 13.8323L20.375 13.7312C20.3598 13.7225 20.3445 13.7138 20.329 13.7051C20.2922 13.6845 20.2539 13.6638 20.2145 13.6432L20.329 13.7051C20.2546 13.6635 20.1755 13.6222 20.0919 13.5813L20.2145 13.6432C20.1537 13.6115 20.0902 13.5799 20.0241 13.5486L20.0919 13.5813C20.0353 13.5536 19.9766 13.526 19.9159 13.4987L20.0241 13.5486C19.9419 13.5097 19.8557 13.4713 19.7655 13.4333L19.9159 13.4987C19.8549 13.4713 19.7918 13.4441 19.7268 13.4171L19.7655 13.4333C19.7004 13.4058 19.6333 13.3787 19.5643 13.3518L19.7268 13.4171C19.6433 13.3824 19.5565 13.3482 19.4665 13.3144L19.5643 13.3518C19.4981 13.326 19.4302 13.3005 19.3605 13.2753L19.4665 13.3144C19.3078 13.2548 19.1393 13.1967 18.9615 13.1403L18.627 13.0395ZM5.3706 8.54077L5.64141 8.46567C4.69145 8.7172 3.94198 9.01848 3.45952 9.33235C3.11484 9.55659 3 9.71197 3 9.74898C3 9.95284 3.27641 10.1865 3.77269 10.4204L4.03889 10.5373C4.13356 10.5762 4.23407 10.6149 4.34017 10.6534L4.67494 10.7679C4.79194 10.8058 4.91427 10.8432 5.04165 10.8801L5.43872 10.989L5.50529 11.0062C5.55106 11.0117 5.59654 11.0204 5.64141 11.0323L5.54289 11.0112C5.56613 11.0149 5.58918 11.0194 5.61199 11.0248L5.64141 11.0323C5.84182 11.0854 6.04924 11.1358 6.26308 11.1834L6.08782 11.1446C6.23887 11.178 6.39432 11.2105 6.55392 11.242L7.04488 11.3333L7.55914 11.4177C7.64671 11.4311 7.73518 11.4443 7.82452 11.457L8.37077 11.5296L8.93639 11.5932L9.5198 11.6471C9.71707 11.6634 9.91703 11.6779 10.1194 11.6905L10.7337 11.7224L11.3521 11.7426C11.3581 11.7427 11.3641 11.7428 11.3701 11.7429L11.613 11.7455L12 11.749C12.129 11.749 12.2576 11.7482 12.3857 11.7467C12.4676 11.7455 12.5489 11.7441 12.6299 11.7424L12.3857 11.7467C12.4733 11.7457 12.5607 11.7443 12.6479 11.7426L13.2663 11.7224L13.8806 11.6905C14.083 11.6779 14.2829 11.6634 14.4802 11.6471L15.0636 11.5932L15.6292 11.5296L16.1755 11.457L16.7008 11.3764C16.7865 11.3623 16.8713 11.3479 16.9551 11.3333L17.4461 11.242L17.6823 11.194L17.809 11.1672C17.9974 11.1244 18.1808 11.0794 18.3586 11.0323C18.3685 11.0297 18.3784 11.0272 18.3884 11.0249C18.3984 11.0223 18.4089 11.0201 18.4194 11.018L18.4545 11.0119C18.4675 11.0098 18.4806 11.0079 18.4937 11.0063C18.5167 11.0006 18.5391 10.9948 18.5613 10.989L18.9583 10.8801C19.022 10.8616 19.0845 10.8431 19.1456 10.8244L19.4965 10.7109C19.664 10.6536 19.8191 10.5956 19.9611 10.5373L20.2273 10.4204C20.7236 10.1865 21 9.95284 21 9.74898C21 9.71197 20.8852 9.55659 20.5405 9.33235C20.105 9.04906 19.4521 8.77604 18.6305 8.54058C18.1236 8.66809 17.583 8.77903 17.0132 8.8729L16.4412 8.96004C16.3443 8.97363 16.2467 8.98675 16.1484 8.99941L15.55 9.06967C15.2467 9.10196 14.9373 9.12998 14.6225 9.15365L13.9858 9.19517L13.3357 9.22498C13.2263 9.22897 13.1164 9.23246 13.006 9.23546L12.338 9.24747L12 9.24898C11.8869 9.24898 11.7742 9.24848 11.662 9.24747L10.994 9.23546C10.8836 9.23246 10.7737 9.22897 10.6643 9.22498L10.0142 9.19517L9.37754 9.15365C9.06272 9.12998 8.75333 9.10196 8.45 9.06967L7.85162 8.99941C7.65497 8.9741 7.46121 8.94691 7.27052 8.91786L6.70783 8.82516C6.24013 8.74209 5.79337 8.64718 5.3706 8.54077ZM12 3.24898L11.6792 3.25069C11.5727 3.25183 11.4667 3.25352 11.3611 3.25575L10.7337 3.27553L10.1194 3.3075C9.91703 3.3201 9.71706 3.33459 9.5198 3.35084L8.93639 3.40473L8.37077 3.46836L7.82452 3.54091C7.73517 3.5537 7.64671 3.56683 7.55914 3.58028L7.04488 3.66469L6.55392 3.75597C6.39432 3.78746 6.23887 3.81996 6.08782 3.85333L5.64815 3.95593C5.57716 3.97342 5.50734 3.99109 5.43872 4.00894L5.04165 4.11788C4.91427 4.15477 4.79194 4.1922 4.67494 4.23003L4.34017 4.34457C4.23407 4.38306 4.13356 4.42181 4.03889 4.46068L3.77269 4.57755C3.27641 4.81151 3 5.04512 3 5.24898C3 5.45285 3.27641 5.68645 3.77269 5.92041L4.03889 6.03728C4.18089 6.09559 4.33604 6.15362 4.50346 6.21091L4.8544 6.32436C4.91553 6.34305 4.97796 6.36163 5.04165 6.38008L5.43872 6.48902C5.46421 6.49565 5.48986 6.50226 5.51568 6.50884C5.58904 6.51698 5.65948 6.53442 5.72702 6.55903L5.86458 6.59394L6.31766 6.69402L6.55392 6.74199L7.04488 6.83327C7.1287 6.84794 7.21348 6.86231 7.2992 6.87639L7.82452 6.95705L8.37077 7.0296L8.93639 7.09323L9.5198 7.14712C9.71706 7.16337 9.91703 7.17787 10.1194 7.19046L10.7337 7.22243L11.3611 7.24221C11.5722 7.24668 11.7853 7.24898 12 7.24898C12.2147 7.24898 12.4278 7.24668 12.6389 7.24221L13.2663 7.22243L13.8806 7.19046C14.083 7.17787 14.2829 7.16337 14.4802 7.14712L15.0636 7.09323L15.6292 7.0296L16.1755 6.95705C16.2648 6.94426 16.3533 6.93113 16.4409 6.91768L16.9551 6.83327L17.4461 6.74199C17.6057 6.7105 17.7611 6.67801 17.9122 6.64464L18.276 6.55794C18.3442 6.53334 18.4153 6.51604 18.4882 6.50673L18.5613 6.48902L18.9583 6.38008C19.0857 6.34319 19.2081 6.30576 19.3251 6.26793L19.6598 6.15339C19.7659 6.11491 19.8664 6.07616 19.9611 6.03728L20.2273 5.92041C20.7236 5.68645 21 5.45285 21 5.24898C21 5.04512 20.7236 4.81151 20.2273 4.57755L19.9611 4.46068C19.8191 4.40237 19.664 4.34434 19.4965 4.28705L19.1456 4.1736C19.0845 4.15491 19.022 4.13633 18.9583 4.11788L18.5613 4.00894C18.424 3.97325 18.282 3.93823 18.1354 3.90402L17.6823 3.80394L17.4461 3.75597L16.9551 3.66469C16.8713 3.65002 16.7865 3.63565 16.7008 3.62157L16.1755 3.54091L15.6292 3.46836L15.0636 3.40473L14.4802 3.35084C14.2829 3.33459 14.083 3.3201 13.8806 3.3075L13.2663 3.27553L12.6389 3.25575C12.4278 3.25128 12.2147 3.24898 12 3.24898Z" fill="#EF5458"></path>
  </symbol>
  <symbol fill="none" xmlns="http://www.w3.org/2000/svg" viewBox="0 0 24 24" id="degree-hat">
    <path d="M11.14 3.57139C11.3783 3.4762 11.6439 3.4762 11.8822 3.57139L22.3933 7.77139C22.8208 7.94222 23.0304 8.33451 23.022 8.72244L23.0222 8.75505V13.3666C23.0222 13.9189 22.5745 14.3666 22.0222 14.3666C21.5094 14.3666 21.0867 13.9806 21.0289 13.4833L21.0222 13.3666L21.022 10.176L18.244 11.286L18.2444 17.1334C18.2444 17.4014 18.1369 17.6581 17.9458 17.8461C17.5898 18.1965 16.9714 18.6909 16.1286 19.1811C14.7153 20.0031 13.1622 20.5 11.5111 20.5C9.86005 20.5 8.30691 20.0031 6.89356 19.1811C6.05079 18.6909 5.43239 18.1965 5.07636 17.8461C4.91717 17.6895 4.81593 17.485 4.7866 17.2662L4.77775 17.1334L4.777 11.286L0.628947 9.62861C-0.169716 9.30948 -0.207748 8.21759 0.514853 7.82487L0.628947 7.77139L11.14 3.57139ZM16.244 12.085L11.8822 13.8286C11.6439 13.9238 11.3783 13.9238 11.14 13.8286L6.777 12.085V16.679L6.83005 16.7221C7.06255 16.908 7.32245 17.0948 7.60675 17.2748L7.89907 17.4522C9.02896 18.1094 10.2499 18.5 11.5111 18.5C12.7723 18.5 13.9932 18.1094 15.1231 17.4522C15.4234 17.2776 15.7002 17.0937 15.9506 16.908L16.1921 16.7221L16.244 16.679V12.085ZM11.511 5.576L3.695 8.7L11.511 11.823L19.327 8.7L11.511 5.576Z" fill="#EF5458"></path>
  </symbol>
  <symbol fill="none" xmlns="http://www.w3.org/2000/svg" viewBox="0 0 24 24" id="enquire">
    <path fill-rule="evenodd" clip-rule="evenodd" d="M6 1C4.34315 1 3 2.34315 3 4C3 5.65683 4.34314 7 6 7C7.65683 7 9 5.65683 9 4C9 2.34314 7.65683 1 6 1ZM5 4C5 3.44771 5.44771 3 6 3C6.55227 3 7 3.44772 7 4C7 4.55227 6.55227 5 6 5C5.44772 5 5 4.55227 5 4Z" fill="#EF5458"></path>
    <path fill-rule="evenodd" clip-rule="evenodd" d="M18.5 2C16.567 2 15 3.567 15 5.5C15 7.43298 16.567 9 18.5 9C20.433 9 22 7.43298 22 5.5C22 3.567 20.433 2 18.5 2ZM17 5.5C17 4.67158 17.6716 4 18.5 4C19.3284 4 20 4.67158 20 5.5C20 6.32841 19.3284 7 18.5 7C17.6716 7 17 6.32841 17 5.5Z" fill="#EF5458"></path>
    <path d="M17.4607 12.4843C17.1963 12.8066 17 13.3193 17 14V17C17 17.2968 16.8682 17.5782 16.6402 17.7682L13.6402 20.2682C13.2159 20.6218 12.5853 20.5645 12.2318 20.1402C11.8782 19.7159 11.9355 19.0853 12.3598 18.7318L15 16.5316V14C15 12.9477 15.3037 11.9604 15.9143 11.2159C16.5375 10.4562 17.4438 10 18.5 10C19.5562 10 20.4625 10.4562 21.0857 11.2159C21.6963 11.9604 22 12.9477 22 14V21C22 21.5523 21.5523 22 21 22C20.4477 22 20 21.5523 20 21V14C20 13.3193 19.8037 12.8066 19.5393 12.4843C19.2875 12.1773 18.9438 12 18.5 12C18.0562 12 17.7125 12.1773 17.4607 12.4843Z" fill="#EF5458"></path>
    <path d="M6.5 8C5.44382 8 4.53749 8.4562 3.91433 9.21591C3.30369 9.96035 3 10.9477 3 12V21C3 21.5523 3.44772 22 4 22C4.55228 22 5 21.5523 5 21V12C5 11.3193 5.19631 10.8066 5.46067 10.4843C5.71251 10.1773 6.05618 10 6.5 10C6.94382 10 7.28749 10.1773 7.53933 10.4843C7.80369 10.8066 8 11.3193 8 12V14C8 14.2968 8.13182 14.5782 8.35982 14.7682L11.3598 17.2682C11.7841 17.6218 12.4147 17.5645 12.7682 17.1402C13.1218 16.7159 13.0645 16.0853 12.6402 15.7318L10 13.5316V12C10 10.9477 9.69631 9.96035 9.08567 9.21591C8.46251 8.4562 7.55618 8 6.5 8Z" fill="#EF5458"></path>
  </symbol>
  <symbol fill="none" xmlns="http://www.w3.org/2000/svg" viewBox="0 0 24 24" id="every-user">
    <path fill-rule="evenodd" clip-rule="evenodd" d="M12 3C11.1716 3 10.5 3.67157 10.5 4.5C10.5 5.32843 11.1716 6 12 6C12.8284 6 13.5 5.32843 13.5 4.5C13.5 3.67157 12.8284 3 12 3ZM14.7497 6.66574C15.2196 6.06994 15.5 5.31772 15.5 4.5C15.5 2.567 13.933 1 12 1C10.067 1 8.5 2.567 8.5 4.5C8.5 5.31772 8.78042 6.06994 9.25035 6.66574C7.56631 7.53558 6.34701 9.17948 6.06308 11.1268C4.58502 11.5365 3.5 12.8915 3.5 14.5C3.5 15.3177 3.78042 16.0699 4.25034 16.6657C2.31978 17.6629 1 19.6773 1 22C1 22.5523 1.44772 23 2 23C2.55228 23 3 22.5523 3 22C3 19.7909 4.79086 18 7 18C9.20912 18 11 19.7909 11 22C11 22.5523 11.4477 23 12 23C12.5523 23 13 22.5523 13 22C13 19.7909 14.7909 18 17 18C19.2091 18 21 19.7909 21 22C21 22.5523 21.4477 23 22 23C22.5523 23 23 22.5523 23 22C23 19.6773 21.6802 17.6629 19.7497 16.6657C20.2196 16.0699 20.5 15.3177 20.5 14.5C20.5 12.8915 19.415 11.5365 17.9369 11.1268C17.653 9.17948 16.4337 7.53558 14.7497 6.66574ZM15.9141 11.1717C15.5327 9.36005 13.9251 8 12 8C10.0749 8 8.46734 9.36005 8.08587 11.1717C9.4873 11.6286 10.5 12.9461 10.5 14.5C10.5 15.3177 10.2196 16.0699 9.74965 16.6657C10.6606 17.1362 11.4355 17.8332 12 18.6822C12.5645 17.8332 13.3394 17.1362 14.2503 16.6657C13.7804 16.0699 13.5 15.3177 13.5 14.5C13.5 12.9461 14.5127 11.6286 15.9141 11.1717ZM17 16C17.8284 16 18.5 15.3284 18.5 14.5C18.5 13.6716 17.8284 13 17 13C16.1716 13 15.5 13.6716 15.5 14.5C15.5 15.3284 16.1716 16 17 16ZM7 16C7.82843 16 8.5 15.3284 8.5 14.5C8.5 13.6716 7.82843 13 7 13C6.17157 13 5.5 13.6716 5.5 14.5C5.5 15.3284 6.17157 16 7 16Z" fill="#EF5458"></path>
  </symbol>
  <symbol fill="none" xmlns="http://www.w3.org/2000/svg" viewBox="0 0 24 24" id="file-date-one">
    <path fill-rule="evenodd" clip-rule="evenodd" d="M5 1C3.89543 1 3 1.89543 3 3V21C3 22.1046 3.89544 23 5 23H11C11.5523 23 12 22.5523 12 22C12 21.4477 11.5523 21 11 21H5V3H14V7C14 7.55228 14.4477 8 15 8H19V11.5C19 12.0523 19.4477 12.5 20 12.5C20.5523 12.5 21 12.0523 21 11.5V7C21 6.74138 20.9018 6.5057 20.7407 6.32817L16.2433 1.33104C16.0537 1.12032 15.7835 1 15.5 1H5ZM16 4.0504V6H17.7546L16 4.0504Z" fill="#EF5458"></path>
    <path d="M16.5 15.5C17.0523 15.5 17.5 15.9477 17.5 16.5V17.5H18.5C19.0523 17.5 19.5 17.9477 19.5 18.5C19.5 19.0523 19.0523 19.5 18.5 19.5H16.5C15.9477 19.5 15.5 19.0523 15.5 18.5V16.5C15.5 15.9477 15.9477 15.5 16.5 15.5Z" fill="#EF5458"></path>
    <path fill-rule="evenodd" clip-rule="evenodd" d="M17 13C14.2386 13 12 15.2386 12 18C12 20.7614 14.2386 23 17 23C19.7614 23 22 20.7614 22 18C22 15.2386 19.7614 13 17 13ZM14 18C14 16.3431 15.3431 15 17 15C18.6569 15 20 16.3431 20 18C20 19.6569 18.6569 21 17 21C15.3431 21 14 19.6569 14 18Z" fill="#EF5458"></path>
  </symbol>
  <symbol fill="none" xmlns="http://www.w3.org/2000/svg" viewBox="0 0 24 24" id="file-protection">
    <path d="M15.5 1C15.7835 1 16.0537 1.12032 16.2433 1.33104L20.7433 6.33104C20.747 6.33518 20.7507 6.33935 20.7544 6.34355C20.7744 6.36655 20.7932 6.39026 20.811 6.41481C20.8159 6.42172 20.8208 6.42878 20.8257 6.4359C20.8427 6.46051 20.8583 6.48577 20.8729 6.51174C20.8783 6.52167 20.8837 6.53177 20.8889 6.54196C20.9014 6.56563 20.9127 6.58995 20.9231 6.61478C20.9277 6.62649 20.9323 6.63799 20.9366 6.64957C20.9454 6.67222 20.9531 6.69547 20.96 6.71909C20.9642 6.73446 20.9684 6.7499 20.9721 6.76545C20.9816 6.80404 20.9886 6.84335 20.9933 6.88338L21 7V21C21 22.1046 20.1046 23 19 23H5C3.89543 23 3 22.1046 3 21V3C3 1.89543 3.89543 1 5 1H15.5ZM14 3H5V21H19V8H15C14.4872 8 14.0645 7.61396 14.0067 7.11662L14 7V3ZM11.7085 9.04344C11.8985 8.98552 12.1015 8.98552 12.2915 9.04344C12.3148 9.05052 12.3413 9.0587 12.371 9.06792L13.283 9.36791C13.5635 9.46457 13.8404 9.56432 14.106 9.66551C14.4407 9.79302 14.7436 9.91762 15.0084 10.0387L15.3766 10.2128C16.1688 10.6045 16.5 10.917 16.5 11.6C16.5 13.716 15.7548 15.5327 14.5231 17.0342C13.7873 17.9312 13.0467 18.5331 12.5205 18.8539C12.2008 19.0487 11.7992 19.0487 11.4795 18.8539C10.9533 18.5331 10.2127 17.9312 9.47685 17.0342C8.24516 15.5327 7.5 13.716 7.5 11.6C7.5 10.917 7.83117 10.6045 8.62344 10.2128L8.99159 10.0387C9.25644 9.91762 9.55928 9.79302 9.89401 9.66551C10.2924 9.51372 10.7162 9.36519 11.1396 9.22541L11.7085 9.04344ZM12 11.048L11.9029 11.0799L11.3709 11.258C11.1086 11.3484 10.8508 11.4412 10.606 11.5345C10.3087 11.6477 10.0444 11.7565 9.82312 11.8576L9.5776 11.9759L9.513 12.009L9.52624 12.1956C9.63921 13.4623 10.112 14.5758 10.8485 15.5447L11.0231 15.7658C11.361 16.1776 11.7234 16.5311 12.0838 16.824L12 16.752L12.1325 16.641C12.3485 16.4508 12.5634 16.2389 12.7714 16.0058L12.9769 15.7658C13.8132 14.7462 14.3521 13.5598 14.4738 12.1956L14.486 12.009L14.4224 11.9759L14.1769 11.8576C13.9556 11.7565 13.6913 11.6477 13.394 11.5345C13.0268 11.3946 12.6303 11.2556 12.2334 11.1246L12 11.048ZM17.755 6L16 4.05V6H17.755Z" fill="#EF5458"></path>
  </symbol>
  <symbol fill="none" xmlns="http://www.w3.org/2000/svg" viewBox="0 0 24 24" id="flash-payment">
    <path d="M11.4701 5.74277C11.6041 5.20698 11.2783 4.66404 10.7425 4.53009C10.2067 4.39615 9.66381 4.72191 9.52987 5.2577L8.52987 9.2577C8.39592 9.7935 8.72168 10.3364 9.25747 10.4704C9.79327 10.6043 10.3362 10.2786 10.4701 9.74277L11.4701 5.74277Z" fill="#EF5458"></path>
    <path fill-rule="evenodd" clip-rule="evenodd" d="M8.00001 1C7.54494 1 7.14726 1.30725 7.03239 1.74758L4.03239 13.2476C3.95421 13.5473 4.01931 13.8663 4.20867 14.1114C4.39804 14.3565 4.69028 14.5 5.00001 14.5H7.73741L6.02659 21.771C5.92266 22.2127 6.12918 22.669 6.52962 22.8825C6.93006 23.0959 7.42403 23.013 7.7328 22.6805L20.7328 8.68045C21.0034 8.38899 21.0756 7.96486 20.9166 7.60028C20.7577 7.2357 20.3977 7 20 7H15.2808L16.4702 2.24254C16.5448 1.94379 16.4777 1.6273 16.2882 1.38459C16.0987 1.14187 15.8079 1 15.5 1H8.00001ZM6.29435 12.5L8.77261 3H14.2192L13.0299 7.75746C12.9552 8.05621 13.0223 8.3727 13.2118 8.61541C13.4013 8.85813 13.6921 9 14 9H17.7068L8.83913 18.5498L9.97343 13.729C10.0434 13.4317 9.9736 13.1186 9.78392 12.8791C9.59425 12.6396 9.30551 12.5 9.00001 12.5H6.29435Z" fill="#EF5458"></path>
  </symbol>
  <symbol fill="none" xmlns="http://www.w3.org/2000/svg" viewBox="0 0 24 24" id="gold-medal-two">
    <path d="M13 13.5C13 13.1534 12.8205 12.8316 12.5257 12.6494C12.2309 12.4671 11.8628 12.4506 11.5528 12.6056L10.5528 13.1056C10.0588 13.3526 9.85856 13.9532 10.1055 14.4472C10.2806 14.7974 10.6334 14.9999 11 15.0002V17.5C10.4477 17.5 9.99997 17.9477 9.99997 18.5C9.99997 19.0523 10.4477 19.5 11 19.5H13C13.5523 19.5 14 19.0523 14 18.5C14 17.9477 13.5523 17.5 13 17.5V13.5Z" fill="#EF5458"></path>
    <path fill-rule="evenodd" clip-rule="evenodd" d="M3 2C3 1.44772 3.44772 1 4 1H20.0001C20.5523 1 21.0001 1.44772 21.0001 2V7C21.0001 7.31476 20.8519 7.61115 20.6001 7.8L17 10.5V11.1011C18.2361 12.3626 19 14.0926 19 16C19 19.866 15.866 23 12 23C8.13402 23 5 19.866 5 16C5 14.0927 5.76393 12.3626 7 11.1011V10.5L3.4 7.8C3.14819 7.61115 3 7.31476 3 7V2ZM5 3H7V8L5 6.5V3ZM12 9C10.9269 9 9.90944 9.24194 9 9.67391V3H15V9.67391C14.9001 9.62646 14.7989 9.5813 14.6965 9.5385C13.8664 9.1917 12.9552 9 12 9ZM19.0001 6.5L17 8.00004V3H19.0001V6.5ZM12 11C13.1211 11 14.1544 11.368 14.9883 11.9907C15.1074 12.0797 15.2224 12.1739 15.3331 12.2729C16.3576 13.1899 17 14.5193 17 16C17 18.7614 14.7614 21 12 21C9.23858 21 7 18.7614 7 16C7 14.5193 7.64241 13.1899 8.66693 12.2729C9.55216 11.4806 10.7188 11 12 11Z" fill="#EF5458"></path>
  </symbol>
  <symbol fill="none" xmlns="http://www.w3.org/2000/svg" viewBox="0 0 24 24" id="good-two">
    <path d="M4 9.4998C5.10458 9.4998 6 10.3952 6 11.4998V20.9998C6 22.1044 5.10458 22.9998 4 22.9998H2.91681C1.8794 22.9998 1.0142 22.2066 0.92433 21.1731L0.0982441 11.6731C-0.00336194 10.5045 0.917777 9.4998 2.09073 9.4998H4ZM11.5172 3.23072C11.7154 1.80127 12.9831 1.73069 14.1354 2.35588C14.8935 2.76716 15.6656 3.48638 16.1076 4.22363C16.5729 4.99957 16.7133 5.94602 16.6495 6.98432C16.6213 7.44254 16.5573 7.82511 16.4224 8.34739L16.3074 8.76866L16.093 9.4918L20.1784 9.49205C21.4556 9.49205 22.3921 10.6672 22.1378 11.8939L22.1032 12.0356L19.418 21.5434C19.1747 22.4049 18.3885 22.9998 17.4933 22.9998H9C7.89541 22.9998 7 22.1044 7 20.9998V11.1871C7 10.38 7.48382 9.65539 8.21125 9.31251C9.31528 8.79208 10.2471 8.135 10.6424 7.4758C10.9281 6.99921 11.1553 6.24411 11.3084 5.33219C11.4162 4.69017 11.4741 4.0666 11.4966 3.55987L11.5069 3.31904L11.5172 3.23072ZM4 11.4998H2.09073L2.91681 20.9998H4V11.4998ZM13.453 4.2838L13.4241 4.59957C13.4009 4.82587 13.3723 5.06053 13.3375 5.3003L13.2808 5.66339C13.0899 6.80036 12.7984 7.76917 12.3576 8.50428C11.7025 9.59698 10.501 10.4442 9.06401 11.1216C9.02099 11.1419 9 11.1733 9 11.1871V20.9998L17.493 20.9988L20.1784 11.492L14.75 11.4921C14.0802 11.4921 13.5998 10.8465 13.7921 10.2049L14.2322 8.73687L14.3714 8.26438L14.4691 7.90977L14.5431 7.60832C14.6063 7.32807 14.6384 7.10336 14.6532 6.86161C14.6945 6.18953 14.6091 5.61362 14.3923 5.25209C14.1957 4.92413 13.8457 4.56595 13.4874 4.30768L13.453 4.2838Z" fill="#EF5458"></path>
  </symbol>
  <symbol fill="none" xmlns="http://www.w3.org/2000/svg" viewBox="0 0 24 24" id="grinning-face">
    <path d="M12 1C18.0751 1 23 5.92487 23 12C23 18.0751 18.0751 23 12 23C5.92487 23 1 18.0751 1 12C1 5.92487 5.92487 1 12 1ZM12 3C7.02943 3 3 7.02943 3 12C3 16.9706 7.02943 21 12 21C16.9706 21 21 16.9706 21 12C21 7.02943 16.9706 3 12 3ZM15.5 14.5C16.2434 14.5 16.7269 15.2823 16.3944 15.9472C16.2169 16.3024 15.8799 16.778 15.3519 17.2474C14.4741 18.0277 13.3523 18.5 12 18.5C10.6477 18.5 9.52591 18.0277 8.64814 17.2474C8.12007 16.778 7.78314 16.3024 7.60557 15.9472C7.27312 15.2823 7.75662 14.5 8.5 14.5H15.5ZM15.5 9C16.0128 9 16.4355 9.38604 16.4933 9.88338L16.5 10V10.5C16.5 11.0523 16.0523 11.5 15.5 11.5C14.9872 11.5 14.5645 11.114 14.5067 10.6166L14.5 10.5V10C14.5 9.44771 14.9477 9 15.5 9ZM8.5 9C9.01284 9 9.43551 9.38604 9.49327 9.88338L9.5 10V10.5C9.5 11.0523 9.05229 11.5 8.5 11.5C7.98716 11.5 7.56449 11.114 7.50673 10.6166L7.5 10.5V10C7.5 9.44771 7.94772 9 8.5 9Z" fill="#EF5458"></path>
  </symbol>
  <symbol fill="none" xmlns="http://www.w3.org/2000/svg" viewBox="0 0 24 24" id="plan">
    <path fill-rule="evenodd" clip-rule="evenodd" d="M8 1.5C8.55228 1.5 9 1.94772 9 2.5V3H15V2.5C15 1.94772 15.4477 1.5 16 1.5C16.5523 1.5 17 1.94772 17 2.5V3H20.5C21.6046 3 22.5 3.89544 22.5 5V20.5C22.5 21.6046 21.6046 22.5 20.5 22.5H3.5C2.39544 22.5 1.5 21.6046 1.5 20.5V5C1.5 3.89543 2.39543 3 3.5 3H7V2.5C7 1.94772 7.44772 1.5 8 1.5ZM7 5H3.5V8.5H20.5V5H17V6.5C17 7.05228 16.5523 7.5 16 7.5C15.4477 7.5 15 7.05228 15 6.5V5H9V6.5C9 7.05228 8.55228 7.5 8 7.5C7.44772 7.5 7 7.05228 7 6.5V5ZM20.5 10.5H3.5V20.5H20.5V10.5ZM17.7071 11.7929C18.0976 12.1834 18.0976 12.8166 17.7071 13.2071L11.7071 19.2071C11.3166 19.5976 10.6834 19.5976 10.2929 19.2071L7.29289 16.2071C6.90237 15.8166 6.90237 15.1834 7.29289 14.7929C7.68342 14.4024 8.31658 14.4024 8.70711 14.7929L11 17.0858L16.2929 11.7929C16.6834 11.4024 17.3166 11.4024 17.7071 11.7929Z" fill="#EF5458"></path>
  </symbol>
  <symbol fill="none" xmlns="http://www.w3.org/2000/svg" viewBox="0 0 24 24" id="screenshot-one">
    <path d="M2 4C2 2.89543 2.89543 2 4 2H8C8.55228 2 9 2.44772 9 3C9 3.55228 8.55228 4 8 4H4V8C4 8.55228 3.55228 9 3 9C2.44772 9 2 8.55228 2 8V4Z" fill="#EF5458"></path>
    <path d="M3 15C3.55228 15 4 15.4477 4 16V20H8C8.55228 20 9 20.4477 9 21C9 21.5523 8.55228 22 8 22H4C2.89544 22 2 21.1046 2 20V16C2 15.4477 2.44772 15 3 15Z" fill="#EF5458"></path>
    <path d="M22 16C22 15.4477 21.5523 15 21 15C20.4477 15 20 15.4477 20 16V20H16C15.4477 20 15 20.4477 15 21C15 21.5523 15.4477 22 16 22H20C21.1046 22 22 21.1046 22 20V16Z" fill="#EF5458"></path>
    <path d="M15 3C15 2.44772 15.4477 2 16 2H20C21.1046 2 22 2.89544 22 4V8C22 8.55228 21.5523 9 21 9C20.4477 9 20 8.55228 20 8V4H16C15.4477 4 15 3.55228 15 3Z" fill="#EF5458"></path>
    <path fill-rule="evenodd" clip-rule="evenodd" d="M8 6C6.89543 6 6 6.89543 6 8V16C6 17.1046 6.89543 18 8 18H16C17.1046 18 18 17.1046 18 16V8C18 6.89543 17.1046 6 16 6H8ZM8 8H16V16H8V8Z" fill="#EF5458"></path>
  </symbol>
  <symbol fill="none" xmlns="http://www.w3.org/2000/svg" viewBox="0 0 24 24" id="trend-two">
    <path fill-rule="evenodd" clip-rule="evenodd" d="M16 2C16 1.44772 16.4477 1 17 1H22C22.4638 1 22.8667 1.31888 22.9732 1.77025C23.0798 2.22162 22.862 2.68702 22.4472 2.89443L6.44721 10.8944C6.2337 11.0012 5.98904 11.028 5.75746 10.9701L1.75746 9.97014C1.22166 9.83619 0.895901 9.29326 1.02985 8.75746C1.1638 8.22167 1.70673 7.89591 2.24253 8.02986L5.88365 8.94014L17.7639 3H17C16.4477 3 16 2.55228 16 2ZM22.5257 5.14935C22.8205 5.33156 23 5.65342 23 6V19C23 19.5523 22.5523 20 22 20H18C17.4477 20 17 19.5523 17 19V8C17 7.62123 17.214 7.27496 17.5528 7.10557L21.5528 5.10557C21.8628 4.95058 22.2309 4.96714 22.5257 5.14935ZM19 8.61803V18H21V7.61803L19 8.61803ZM14.5257 9.14935C14.8205 9.33156 15 9.65342 15 10V19C15 19.5523 14.5523 20 14 20H9.99999C9.44771 20 8.99999 19.5523 8.99999 19V12C8.99999 11.6212 9.21399 11.275 9.55278 11.1056L13.5528 9.10557C13.8628 8.95058 14.2309 8.96714 14.5257 9.14935ZM11 12.618V18H13V11.618L11 12.618ZM1.38458 12.2118C1.6273 12.0223 1.94379 11.9552 2.24253 12.0299L6.24253 13.0299C6.6877 13.1411 6.99999 13.5411 6.99999 14V19C6.99999 19.5523 6.55228 20 5.99999 20H1.99999C1.44771 20 0.999992 19.5523 0.999992 19V13C0.999992 12.6921 1.14186 12.4013 1.38458 12.2118ZM2.99999 14.2808V18H4.99999V14.7808L2.99999 14.2808ZM0.999992 22C0.999992 21.4477 1.44771 21 1.99999 21H22C22.5523 21 23 21.4477 23 22C23 22.5523 22.5523 23 22 23H1.99999C1.44771 23 0.999992 22.5523 0.999992 22Z" fill="#EF5458"></path>
  </symbol>
  <symbol fill="none" xmlns="http://www.w3.org/2000/svg" viewBox="0 0 24 24" id="trophy">
    <path fill-rule="evenodd" clip-rule="evenodd" d="M5 2C5 1.44772 5.44772 1 6 1H18C18.5523 1 19 1.44772 19 2V4.5H22C22.5523 4.5 23 4.94772 23 5.5C23 9.04062 20.9414 11.2086 18.5067 11.4727C17.599 13.8128 15.5239 15.5597 12.9974 15.928C12.9991 15.9518 13 15.9758 13 16V17H14.5213C14.8574 17 15.171 17.1688 15.356 17.4494L17.3348 20.4494C17.5373 20.7565 17.5549 21.1501 17.3805 21.474C17.2061 21.798 16.8679 22 16.5 22H7.5C7.13777 22 6.80385 21.8041 6.62711 21.4879C6.45037 21.1717 6.45844 20.7847 6.6482 20.4761L8.49322 17.4761C8.67518 17.1803 8.99766 17 9.34502 17H11V16C11 15.9758 11.0009 15.9518 11.0026 15.928C8.47613 15.5597 6.401 13.8128 5.49333 11.4727C3.05859 11.2086 1 9.04062 1 5.5C1 4.94772 1.44772 4.5 2 4.5H5V2ZM7 8.82353C7 11.7099 9.2657 14 12 14C14.7343 14 17 11.7099 17 8.82353V3H7V8.82353ZM5 6.5H3.07356C3.31584 8.05488 4.12356 8.93203 5 9.29689V6.5ZM9.90399 19L9.28899 20H14.6425L13.9829 19H9.90399ZM19 9.29689C19.8764 8.93203 20.6842 8.05488 20.9264 6.5H19V9.29689Z" fill="#EF5458"></path>
  </symbol>
  <symbol fill="none" xmlns="http://www.w3.org/2000/svg" viewBox="0 0 24 24" id="wallet-one">
    <path d="M17.5 12.75C17.5 13.1642 17.1642 13.5 16.75 13.5C16.3358 13.5 16 13.1642 16 12.75C16 12.3358 16.3358 12 16.75 12C17.1642 12 17.5 12.3358 17.5 12.75Z" fill="#EF5458"></path>
    <path fill-rule="evenodd" clip-rule="evenodd" d="M3.65144 3.70405C4.182 3.00017 5.04297 2.5 6.25 2.5H13.5C14.0537 2.5 14.9195 2.67499 15.667 3.29057C16.2692 3.7865 16.7278 4.51353 16.9119 5.5H20.5C21.6046 5.5 22.5 6.39543 22.5 7.5V18.5C22.5 19.6046 21.6046 20.5 20.5 20.5H3.5C2.39543 20.5 1.5 19.6046 1.5 18.5V7.5C1.5 6.56758 2.13806 5.7842 3.00138 5.56266C3.01777 5.04033 3.18361 4.32472 3.65144 3.70405ZM14.3955 4.83443C14.5513 4.96268 14.7265 5.16517 14.848 5.5H5.01156C5.03764 5.31906 5.10984 5.09193 5.24856 4.90788C5.393 4.71625 5.65703 4.5 6.25 4.5H13.5C13.6963 4.5 14.0805 4.57501 14.3955 4.83443ZM3.5 7.5H20.5V9H12.5C11.9477 9 11.5 9.44772 11.5 10V15.5C11.5 16.0523 11.9477 16.5 12.5 16.5H20.5V18.5H3.5V7.5ZM13.5 14.5H20.5V11H13.5V14.5Z" fill="#EF5458"></path>
  </symbol>
</svg>